<svg width="334" height="214" viewBox="0 0 334 214" fill="none" xmlns="http://www.w3.org/2000/svg">
<g filter="url(#filter0_d_691_153568)">
<g clip-path="url(#clip0_691_153568)">
<rect x="30" y="15" width="273.588" height="153.893" rx="12" fill="#121212"/>
<path d="M128.357 65.7161C128.603 65.9619 128.766 66.2896 128.766 66.6174C128.766 66.9724 128.603 67.3002 128.357 67.546C128.111 67.7918 127.783 67.9283 127.455 67.9283H116.968C116.613 67.9283 116.285 67.7918 116.039 67.546C115.793 67.3002 115.657 66.9724 115.657 66.6174C115.657 66.2896 115.793 65.9619 116.039 65.7161C116.285 65.4703 116.613 65.3064 116.968 65.3064H127.455C127.783 65.3064 128.111 65.4703 128.357 65.7161ZM128.193 68.9389C128.275 69.0208 128.329 69.1301 128.329 69.2393V69.6763C128.329 70.1406 128.138 70.6049 127.811 70.9327C127.483 71.2604 127.018 71.4243 126.581 71.4243H117.842C117.377 71.4243 116.913 71.2604 116.585 70.9327C116.258 70.6049 116.094 70.1406 116.094 69.6763V69.2393C116.094 69.1301 116.121 69.0208 116.203 68.9389C116.285 68.857 116.394 68.8023 116.531 68.8023H127.892C128.002 68.8023 128.111 68.857 128.193 68.9389ZM116.585 64.3505C116.449 64.2959 116.367 64.2139 116.258 64.1047C116.176 63.9954 116.121 63.8862 116.094 63.7496C116.066 63.6131 116.066 63.4765 116.094 63.3399C116.695 60.9911 119.207 59.1885 122.212 59.1885C125.189 59.1885 127.701 60.9911 128.302 63.3399C128.329 63.4765 128.329 63.6131 128.302 63.7496C128.275 63.8862 128.22 63.9954 128.138 64.1047C128.029 64.2139 127.947 64.2959 127.811 64.3505C127.701 64.4051 127.565 64.4324 127.428 64.4324H116.968C116.831 64.4324 116.695 64.4051 116.585 64.3505ZM125.38 61.51C125.298 61.592 125.271 61.7012 125.271 61.8105C125.271 61.9197 125.271 62.0017 125.325 62.0563C125.38 62.1382 125.434 62.1928 125.516 62.2202C125.598 62.2475 125.708 62.2748 125.789 62.2475C125.871 62.2475 125.953 62.1928 126.008 62.1382C126.063 62.0836 126.117 62.0017 126.117 61.9197C126.144 61.8105 126.117 61.7285 126.09 61.6466C126.063 61.5647 126.008 61.51 125.926 61.4554C125.871 61.4008 125.789 61.3735 125.708 61.3735C125.571 61.3735 125.462 61.4281 125.38 61.51ZM121.884 60.6361C121.802 60.718 121.775 60.8272 121.775 60.9365C121.775 61.0457 121.775 61.1277 121.829 61.1823C121.884 61.2642 121.938 61.3189 122.02 61.3462C122.102 61.3735 122.212 61.4008 122.294 61.3735C122.375 61.3735 122.457 61.3189 122.512 61.2642C122.567 61.2096 122.621 61.1277 122.621 61.0457C122.649 60.9638 122.621 60.8546 122.594 60.7726C122.567 60.6907 122.512 60.6361 122.43 60.5814C122.375 60.5268 122.294 60.4995 122.212 60.4995C122.075 60.4995 121.966 60.5541 121.884 60.6361ZM118.388 61.51C118.306 61.592 118.279 61.7012 118.279 61.8105C118.279 61.9197 118.279 62.0017 118.333 62.0563C118.388 62.1382 118.443 62.1928 118.524 62.2202C118.606 62.2475 118.716 62.2748 118.798 62.2475C118.88 62.2475 118.961 62.1928 119.016 62.1382C119.071 62.0836 119.125 62.0017 119.125 61.9197C119.153 61.8105 119.125 61.7285 119.098 61.6466C119.071 61.5647 119.016 61.51 118.934 61.4554C118.88 61.4008 118.798 61.3735 118.716 61.3735C118.579 61.3735 118.47 61.4281 118.388 61.51Z" fill="#FFA726"/>
<path d="M135.379 72.645H133.442C133.398 72.645 133.376 72.6172 133.376 72.5615L133.409 60.8141C133.409 60.7696 133.431 60.7474 133.476 60.7474H135.563C135.608 60.7474 135.647 60.7696 135.68 60.8141L137.241 63.0684L138.794 60.8141C138.828 60.7696 138.869 60.7474 138.919 60.7474H141.015C141.065 60.7474 141.09 60.7696 141.09 60.8141L141.124 72.5615C141.124 72.6172 141.101 72.645 141.057 72.645H139.12C139.075 72.645 139.053 72.6172 139.053 72.5615L139.036 63.8366L137.241 66.4415L135.463 63.8366L135.446 72.5615C135.446 72.6172 135.424 72.645 135.379 72.645ZM142.421 72.5615L144.541 60.8141C144.552 60.7696 144.58 60.7474 144.625 60.7474H147.104C147.149 60.7474 147.177 60.7696 147.188 60.8141L149.225 72.5615C149.231 72.6172 149.208 72.645 149.158 72.645H147.263C147.207 72.645 147.177 72.6172 147.171 72.5615L146.988 71.3091H144.658L144.474 72.5615C144.469 72.6172 144.441 72.645 144.391 72.645H142.487C142.443 72.645 142.421 72.6172 142.421 72.5615ZM145.769 64.6798L145 69.4807H146.645L145.944 64.6798L145.844 64.0453L145.769 64.6798ZM153.528 72.812C152.91 72.812 152.345 72.6562 151.833 72.3444C151.326 72.0327 150.923 71.6153 150.622 71.0921C150.327 70.5633 150.18 69.976 150.18 69.3304L150.197 63.9952C150.197 63.3607 150.341 62.7873 150.631 62.2753C150.92 61.7576 151.318 61.3429 151.825 61.0312C152.337 60.714 152.904 60.5553 153.528 60.5553C154.162 60.5553 154.727 60.7084 155.223 61.0145C155.724 61.3207 156.122 61.7353 156.417 62.2586C156.717 62.7762 156.868 63.3551 156.868 63.9952V64.78C156.868 64.8246 156.845 64.8468 156.801 64.8468H154.88C154.836 64.8468 154.814 64.8246 154.814 64.78V63.9952C154.814 63.6167 154.691 63.2911 154.446 63.0183C154.201 62.7456 153.895 62.6092 153.528 62.6092C153.122 62.6092 152.81 62.7484 152.593 63.0267C152.376 63.305 152.267 63.6278 152.267 63.9952V69.3304C152.267 69.7478 152.39 70.0902 152.635 70.3573C152.879 70.6189 153.177 70.7497 153.528 70.7497C153.895 70.7497 154.201 70.605 154.446 70.3156C154.691 70.0206 154.814 69.6922 154.814 69.3304V68.5372C154.814 68.4927 154.836 68.4704 154.88 68.4704H156.817C156.862 68.4704 156.884 68.4927 156.884 68.5372V69.3304C156.884 69.9705 156.734 70.5549 156.433 71.0837C156.127 71.6069 155.724 72.0272 155.223 72.3444C154.722 72.6562 154.157 72.812 153.528 72.812ZM160.569 72.645H158.632C158.588 72.645 158.565 72.6172 158.565 72.5615L158.599 60.8141C158.599 60.7696 158.621 60.7474 158.666 60.7474H162.122C162.74 60.7474 163.308 60.8976 163.825 61.1982C164.343 61.4988 164.755 61.9023 165.061 62.4089C165.373 62.9154 165.529 63.4887 165.529 64.1288C165.529 64.5463 165.465 64.9248 165.337 65.2643C165.209 65.6038 165.058 65.8905 164.886 66.1243C164.719 66.358 164.566 66.5306 164.426 66.6419C165.044 67.3266 165.353 68.1309 165.353 69.0548L165.37 72.5615C165.37 72.6172 165.342 72.645 165.286 72.645H163.349C163.305 72.645 163.283 72.6283 163.283 72.5949V69.0548C163.283 68.643 163.138 68.2867 162.848 67.9861C162.559 67.6856 162.203 67.5353 161.78 67.5353H160.653L160.636 72.5615C160.636 72.6172 160.614 72.645 160.569 72.645ZM162.122 62.7929H160.653V65.4814H162.122C162.473 65.4814 162.784 65.3506 163.057 65.089C163.336 64.8273 163.475 64.5073 163.475 64.1288C163.475 63.767 163.341 63.4553 163.074 63.1937C162.807 62.9265 162.489 62.7929 162.122 62.7929ZM170.416 72.812C169.809 72.812 169.25 72.6562 168.738 72.3444C168.231 72.0327 167.822 71.6181 167.51 71.1004C167.204 70.5772 167.051 70.0039 167.051 69.3805L167.068 63.9618C167.068 63.3273 167.221 62.7567 167.527 62.2502C167.827 61.7381 168.234 61.329 168.746 61.0229C169.258 60.7112 169.815 60.5553 170.416 60.5553C171.039 60.5553 171.599 60.7084 172.094 61.0145C172.595 61.3207 172.996 61.7326 173.296 62.2502C173.602 62.7623 173.755 63.3328 173.755 63.9618L173.772 69.3805C173.772 70.0039 173.622 70.5744 173.321 71.0921C173.015 71.6153 172.609 72.0327 172.102 72.3444C171.596 72.6562 171.034 72.812 170.416 72.812ZM170.416 70.7497C170.761 70.7497 171.061 70.6106 171.317 70.3323C171.573 70.0484 171.701 69.7311 171.701 69.3805L171.685 63.9618C171.685 63.5833 171.565 63.2633 171.326 63.0016C171.086 62.74 170.783 62.6092 170.416 62.6092C170.065 62.6092 169.764 62.7373 169.514 62.9933C169.264 63.2493 169.138 63.5722 169.138 63.9618V69.3805C169.138 69.7534 169.264 70.0762 169.514 70.349C169.764 70.6162 170.065 70.7497 170.416 70.7497ZM183.53 72.6283L180.466 72.645C180.41 72.645 180.382 72.6172 180.382 72.5615L180.415 60.8141C180.415 60.7696 180.438 60.7474 180.482 60.7474L183.68 60.7307C184.315 60.714 184.888 60.8587 185.4 61.1648C185.918 61.471 186.329 61.8856 186.636 62.4089C186.947 62.9265 187.103 63.4998 187.103 64.1288V69.0381C187.103 69.695 186.945 70.2961 186.627 70.8416C186.304 71.3815 185.876 71.8129 185.341 72.1357C184.807 72.453 184.203 72.6172 183.53 72.6283ZM183.68 62.7762L182.486 62.7929L182.469 70.541H183.53C183.953 70.541 184.309 70.3935 184.598 70.0985C184.888 69.8035 185.033 69.45 185.033 69.0381V64.1121C185.033 63.7503 184.899 63.4358 184.632 63.1686C184.365 62.8959 184.047 62.7651 183.68 62.7762ZM188.308 72.5615L190.429 60.8141C190.44 60.7696 190.468 60.7474 190.512 60.7474H192.992C193.037 60.7474 193.065 60.7696 193.076 60.8141L195.113 72.5615C195.118 72.6172 195.096 72.645 195.046 72.645H193.151C193.095 72.645 193.065 72.6172 193.059 72.5615L192.875 71.3091H190.546L190.362 72.5615C190.357 72.6172 190.329 72.645 190.279 72.645H188.375C188.331 72.645 188.308 72.6172 188.308 72.5615ZM191.656 64.6798L190.888 69.4807H192.533L191.832 64.6798L191.731 64.0453L191.656 64.6798ZM199.766 72.6283L196.702 72.645C196.646 72.645 196.619 72.6172 196.619 72.5615L196.652 60.8141C196.652 60.7696 196.674 60.7474 196.719 60.7474L199.917 60.7307C200.551 60.714 201.124 60.8587 201.636 61.1648C202.154 61.471 202.566 61.8856 202.872 62.4089C203.184 62.9265 203.34 63.4998 203.34 64.1288V69.0381C203.34 69.695 203.181 70.2961 202.864 70.8416C202.541 71.3815 202.112 71.8129 201.578 72.1357C201.044 72.453 200.44 72.6172 199.766 72.6283ZM199.917 62.7762L198.723 62.7929L198.706 70.541H199.766C200.189 70.541 200.546 70.3935 200.835 70.0985C201.124 69.8035 201.269 69.45 201.269 69.0381V64.1121C201.269 63.7503 201.136 63.4358 200.868 63.1686C200.601 62.8959 200.284 62.7651 199.917 62.7762ZM208.269 72.6283L205.204 72.645C205.149 72.645 205.121 72.6172 205.121 72.5615L205.154 60.8141C205.154 60.7696 205.177 60.7474 205.221 60.7474L208.419 60.7307C209.053 60.714 209.627 60.8587 210.139 61.1648C210.657 61.471 211.068 61.8856 211.375 62.4089C211.686 62.9265 211.842 63.4998 211.842 64.1288V69.0381C211.842 69.695 211.683 70.2961 211.366 70.8416C211.043 71.3815 210.615 71.8129 210.08 72.1357C209.546 72.453 208.942 72.6172 208.269 72.6283ZM208.419 62.7762L207.225 62.7929L207.208 70.541H208.269C208.692 70.541 209.048 70.3935 209.337 70.0985C209.627 69.8035 209.771 69.45 209.771 69.0381V64.1121C209.771 63.7503 209.638 63.4358 209.371 63.1686C209.104 62.8959 208.786 62.7651 208.419 62.7762ZM217.188 72.645H215.226C215.187 72.645 215.168 72.6228 215.168 72.5782L215.185 67.719L212.897 60.8141C212.886 60.7696 212.902 60.7474 212.947 60.7474H214.851C214.906 60.7474 214.94 60.7696 214.951 60.8141L216.212 65.4146L217.497 60.8141C217.508 60.7696 217.536 60.7474 217.581 60.7474H219.501C219.546 60.7474 219.562 60.7696 219.551 60.8141L217.239 67.6522L217.255 72.5782C217.255 72.6228 217.233 72.645 217.188 72.645Z" fill="white"/>
<path d="M57.2342 110.485H53.3602C53.2711 110.485 53.2266 110.429 53.2266 110.318L53.2934 86.8231C53.2934 86.7341 53.3379 86.6896 53.427 86.6896H57.6016C57.6907 86.6896 57.7686 86.7341 57.8354 86.8231L60.958 91.3317L64.0639 86.8231C64.1307 86.7341 64.2142 86.6896 64.3144 86.6896H68.5057C68.6059 86.6896 68.656 86.7341 68.656 86.8231L68.7228 110.318C68.7228 110.429 68.6782 110.485 68.5892 110.485H64.7151C64.6261 110.485 64.5816 110.429 64.5816 110.318L64.5482 92.868L60.958 98.0779L57.4012 92.868L57.3678 110.318C57.3678 110.429 57.3233 110.485 57.2342 110.485ZM71.0839 110.318L75.3253 86.8231C75.3476 86.7341 75.4033 86.6896 75.4923 86.6896H80.4518C80.5408 86.6896 80.5965 86.7341 80.6188 86.8231L84.6932 110.318C84.7043 110.429 84.6598 110.485 84.5596 110.485H80.769C80.6577 110.485 80.5965 110.429 80.5854 110.318L80.218 107.813H75.5591L75.1918 110.318C75.1806 110.429 75.125 110.485 75.0248 110.485H71.2175C71.1285 110.485 71.0839 110.429 71.0839 110.318ZM77.78 94.5545L76.2438 104.156H79.5334L78.1307 94.5545L77.9303 93.2854L77.78 94.5545ZM93.7671 110.819C92.5314 110.819 91.4015 110.507 90.3773 109.884C89.3643 109.26 88.5572 108.425 87.9561 107.379C87.3661 106.321 87.071 105.147 87.071 103.856L87.1044 93.1853C87.1044 91.9162 87.3939 90.7695 87.9728 89.7454C88.5516 88.7101 89.3476 87.8807 90.3606 87.2573C91.3848 86.6228 92.5203 86.3055 93.7671 86.3055C95.0362 86.3055 96.1661 86.6116 97.1569 87.2239C98.1588 87.8362 98.9548 88.6655 99.5448 89.712C100.146 90.7473 100.447 91.905 100.447 93.1853V94.7549C100.447 94.844 100.402 94.8885 100.313 94.8885H96.4723C96.3832 94.8885 96.3387 94.844 96.3387 94.7549V93.1853C96.3387 92.4283 96.0938 91.777 95.604 91.2315C95.1141 90.6861 94.5019 90.4133 93.7671 90.4133C92.9545 90.4133 92.3311 90.6916 91.8969 91.2482C91.4627 91.8048 91.2457 92.4505 91.2457 93.1853V103.856C91.2457 104.69 91.4906 105.375 91.9804 105.909C92.4702 106.433 93.0658 106.694 93.7671 106.694C94.5019 106.694 95.1141 106.405 95.604 105.826C96.0938 105.236 96.3387 104.579 96.3387 103.856V102.269C96.3387 102.18 96.3832 102.136 96.4723 102.136H100.346C100.435 102.136 100.48 102.18 100.48 102.269V103.856C100.48 105.136 100.179 106.305 99.5782 107.362C98.9659 108.409 98.1588 109.249 97.1569 109.884C96.155 110.507 95.0251 110.819 93.7671 110.819ZM107.617 110.485H103.743C103.654 110.485 103.609 110.429 103.609 110.318L103.676 86.8231C103.676 86.7341 103.721 86.6896 103.81 86.6896H110.723C111.958 86.6896 113.094 86.9901 114.129 87.5913C115.165 88.1924 115.988 88.9995 116.601 90.0125C117.224 91.0256 117.536 92.1722 117.536 93.4524C117.536 94.2874 117.408 95.0444 117.152 95.7234C116.896 96.4025 116.595 96.9758 116.25 97.4434C115.916 97.9109 115.61 98.256 115.332 98.4787C116.567 99.8479 117.185 101.457 117.185 103.305L117.218 110.318C117.218 110.429 117.163 110.485 117.051 110.485H113.177C113.088 110.485 113.044 110.451 113.044 110.385V103.305C113.044 102.481 112.754 101.768 112.176 101.167C111.597 100.566 110.884 100.265 110.038 100.265H107.784L107.75 110.318C107.75 110.429 107.706 110.485 107.617 110.485ZM110.723 90.7807H107.784V96.1576H110.723C111.424 96.1576 112.047 95.896 112.593 95.3728C113.15 94.8495 113.428 94.2094 113.428 93.4524C113.428 92.7288 113.161 92.1054 112.626 91.5822C112.092 91.0479 111.457 90.7807 110.723 90.7807ZM127.077 110.819C125.864 110.819 124.745 110.507 123.721 109.884C122.708 109.26 121.89 108.431 121.266 107.396C120.654 106.349 120.348 105.203 120.348 103.956L120.381 93.1185C120.381 91.8494 120.687 90.7083 121.3 89.6953C121.901 88.6711 122.713 87.8529 123.738 87.2406C124.762 86.6172 125.875 86.3055 127.077 86.3055C128.324 86.3055 129.443 86.6116 130.434 87.2239C131.436 87.8362 132.237 88.66 132.838 89.6953C133.45 90.7194 133.757 91.8605 133.757 93.1185L133.79 103.956C133.79 105.203 133.489 106.344 132.888 107.379C132.276 108.425 131.463 109.26 130.45 109.884C129.437 110.507 128.313 110.819 127.077 110.819ZM127.077 106.694C127.767 106.694 128.369 106.416 128.881 105.859C129.393 105.292 129.649 104.657 129.649 103.956L129.615 93.1185C129.615 92.3615 129.376 91.7214 128.897 91.1981C128.419 90.6749 127.812 90.4133 127.077 90.4133C126.376 90.4133 125.775 90.6694 125.274 91.1814C124.773 91.6935 124.522 92.3392 124.522 93.1185V103.956C124.522 104.702 124.773 105.347 125.274 105.893C125.775 106.427 126.376 106.694 127.077 106.694Z" fill="white"/>
<path d="M146.928 108.985H143.397C143.327 108.985 143.292 108.945 143.292 108.865L143.322 100.118L139.204 87.6893C139.184 87.6092 139.214 87.5691 139.294 87.5691H142.72C142.821 87.5691 142.881 87.6092 142.901 87.6893L145.17 95.9701L147.485 87.6893C147.505 87.6092 147.555 87.5691 147.635 87.5691H151.091C151.172 87.5691 151.202 87.6092 151.182 87.6893L147.019 99.9977L147.049 108.865C147.049 108.945 147.009 108.985 146.928 108.985ZM157.038 109.285C155.946 109.285 154.939 109.005 154.017 108.444C153.105 107.883 152.369 107.136 151.808 106.205C151.257 105.263 150.981 104.231 150.981 103.109L151.011 93.3551C151.011 92.2129 151.287 91.186 151.838 90.2742C152.379 89.3525 153.11 88.6161 154.032 88.065C154.954 87.504 155.956 87.2234 157.038 87.2234C158.16 87.2234 159.167 87.4989 160.058 88.05C160.96 88.601 161.682 89.3425 162.223 90.2742C162.774 91.196 163.049 92.2229 163.049 93.3551L163.079 103.109C163.079 104.231 162.809 105.258 162.268 106.19C161.717 107.131 160.985 107.883 160.074 108.444C159.162 109.005 158.15 109.285 157.038 109.285ZM157.038 105.573C157.659 105.573 158.2 105.323 158.661 104.822C159.122 104.311 159.352 103.74 159.352 103.109L159.322 93.3551C159.322 92.6738 159.107 92.0977 158.676 91.6268C158.245 91.1559 157.699 90.9205 157.038 90.9205C156.407 90.9205 155.866 91.1509 155.415 91.6118C154.964 92.0727 154.738 92.6538 154.738 93.3551V103.109C154.738 103.78 154.964 104.361 155.415 104.852C155.866 105.333 156.407 105.573 157.038 105.573ZM171.716 109.285C170.634 109.285 169.632 109.005 168.71 108.444C167.788 107.883 167.052 107.131 166.501 106.19C165.96 105.238 165.689 104.201 165.689 103.079L165.749 87.6893C165.749 87.6092 165.789 87.5691 165.87 87.5691H169.326C169.406 87.5691 169.446 87.6092 169.446 87.6893V103.079C169.446 103.77 169.667 104.361 170.108 104.852C170.548 105.333 171.084 105.573 171.716 105.573C172.377 105.573 172.928 105.333 173.369 104.852C173.81 104.361 174.03 103.77 174.03 103.079V87.6893C174.03 87.6092 174.07 87.5691 174.15 87.5691H177.607C177.687 87.5691 177.727 87.6092 177.727 87.6893L177.787 103.079C177.787 104.211 177.517 105.253 176.976 106.205C176.425 107.146 175.693 107.898 174.782 108.459C173.87 109.01 172.848 109.285 171.716 109.285ZM184.455 108.985H180.968C180.888 108.985 180.848 108.935 180.848 108.835L180.908 87.6893C180.908 87.6092 180.948 87.5691 181.028 87.5691H187.25C188.362 87.5691 189.384 87.8396 190.316 88.3806C191.248 88.9217 191.989 89.648 192.54 90.5598C193.101 91.4715 193.382 92.5035 193.382 93.6557C193.382 94.4071 193.267 95.0884 193.036 95.6996C192.806 96.3107 192.535 96.8267 192.225 97.2475C191.924 97.6683 191.649 97.9789 191.398 98.1793C192.51 99.4116 193.066 100.859 193.066 102.523L193.096 108.835C193.096 108.935 193.046 108.985 192.946 108.985H189.459C189.379 108.985 189.339 108.955 189.339 108.895V102.523C189.339 101.781 189.079 101.14 188.558 100.599C188.037 100.058 187.396 99.7873 186.634 99.7873H184.605L184.575 108.835C184.575 108.935 184.535 108.985 184.455 108.985ZM187.25 91.2511H184.605V96.0903H187.25C187.881 96.0903 188.443 95.8549 188.933 95.384C189.434 94.9131 189.685 94.337 189.685 93.6557C189.685 93.0044 189.444 92.4434 188.964 91.9725C188.483 91.4916 187.912 91.2511 187.25 91.2511Z" fill="white" fill-opacity="0.7"/>
<path d="M204.074 110.485H200.2C200.111 110.485 200.066 110.429 200.066 110.318L200.133 86.8231C200.133 86.7341 200.178 86.6896 200.267 86.6896H204.441C204.53 86.6896 204.608 86.7341 204.675 86.8231L207.798 91.3317L210.904 86.8231C210.971 86.7341 211.054 86.6896 211.154 86.6896H215.346C215.446 86.6896 215.496 86.7341 215.496 86.8231L215.563 110.318C215.563 110.429 215.518 110.485 215.429 110.485H211.555C211.466 110.485 211.421 110.429 211.421 110.318L211.388 92.868L207.798 98.0779L204.241 92.868L204.208 110.318C204.208 110.429 204.163 110.485 204.074 110.485ZM217.924 110.318L222.165 86.8231C222.187 86.7341 222.243 86.6896 222.332 86.6896H227.292C227.381 86.6896 227.436 86.7341 227.459 86.8231L231.533 110.318C231.544 110.429 231.5 110.485 231.399 110.485H227.609C227.498 110.485 227.436 110.429 227.425 110.318L227.058 107.813H222.399L222.032 110.318C222.02 110.429 221.965 110.485 221.865 110.485H218.057C217.968 110.485 217.924 110.429 217.924 110.318ZM224.62 94.5545L223.084 104.156H226.373L224.971 94.5545L224.77 93.2854L224.62 94.5545ZM240.607 110.819C239.371 110.819 238.241 110.507 237.217 109.884C236.204 109.26 235.397 108.425 234.796 107.379C234.206 106.321 233.911 105.147 233.911 103.856L233.944 93.1853C233.944 91.9162 234.234 90.7695 234.813 89.7454C235.391 88.7101 236.187 87.8807 237.2 87.2573C238.225 86.6228 239.36 86.3055 240.607 86.3055C241.876 86.3055 243.006 86.6116 243.997 87.2239C244.999 87.8362 245.795 88.6655 246.385 89.712C246.986 90.7473 247.286 91.905 247.286 93.1853V94.7549C247.286 94.844 247.242 94.8885 247.153 94.8885H243.312C243.223 94.8885 243.179 94.844 243.179 94.7549V93.1853C243.179 92.4283 242.934 91.777 242.444 91.2315C241.954 90.6861 241.342 90.4133 240.607 90.4133C239.794 90.4133 239.171 90.6916 238.737 91.2482C238.303 91.8048 238.086 92.4505 238.086 93.1853V103.856C238.086 104.69 238.33 105.375 238.82 105.909C239.31 106.433 239.906 106.694 240.607 106.694C241.342 106.694 241.954 106.405 242.444 105.826C242.934 105.236 243.179 104.579 243.179 103.856V102.269C243.179 102.18 243.223 102.136 243.312 102.136H247.186C247.275 102.136 247.32 102.18 247.32 102.269V103.856C247.32 105.136 247.019 106.305 246.418 107.362C245.806 108.409 244.999 109.249 243.997 109.884C242.995 110.507 241.865 110.819 240.607 110.819ZM254.457 110.485H250.583C250.494 110.485 250.449 110.429 250.449 110.318L250.482 86.8231C250.482 86.7341 250.538 86.6896 250.649 86.6896H254.457C254.568 86.6896 254.624 86.7341 254.624 86.8231L254.59 96.1242H259.717V86.8231C259.717 86.7341 259.761 86.6896 259.85 86.6896H263.658C263.769 86.6896 263.825 86.7341 263.825 86.8231L263.891 110.318C263.891 110.429 263.836 110.485 263.724 110.485H259.884C259.772 110.485 259.717 110.429 259.717 110.318V100.265H254.59V110.318C254.59 110.429 254.546 110.485 254.457 110.485ZM273.65 110.819C272.436 110.819 271.318 110.507 270.293 109.884C269.28 109.26 268.462 108.431 267.839 107.396C267.227 106.349 266.92 105.203 266.92 103.956L266.954 93.1185C266.954 91.8494 267.26 90.7083 267.872 89.6953C268.473 88.6711 269.286 87.8529 270.31 87.2406C271.334 86.6172 272.448 86.3055 273.65 86.3055C274.897 86.3055 276.016 86.6116 277.006 87.2239C278.008 87.8362 278.81 88.66 279.411 89.6953C280.023 90.7194 280.329 91.8605 280.329 93.1185L280.363 103.956C280.363 105.203 280.062 106.344 279.461 107.379C278.849 108.425 278.036 109.26 277.023 109.884C276.01 110.507 274.886 110.819 273.65 110.819ZM273.65 106.694C274.34 106.694 274.941 106.416 275.453 105.859C275.965 105.292 276.221 104.657 276.221 103.956L276.188 93.1185C276.188 92.3615 275.949 91.7214 275.47 91.1981C274.991 90.6749 274.385 90.4133 273.65 90.4133C272.949 90.4133 272.347 90.6694 271.846 91.1814C271.346 91.6935 271.095 92.3392 271.095 93.1185V103.956C271.095 104.702 271.346 105.347 271.846 105.893C272.347 106.427 272.949 106.694 273.65 106.694Z" fill="white"/>
</g>
</g>
<defs>
<filter id="filter0_d_691_153568" x="0" y="0" width="333.588" height="213.893" filterUnits="userSpaceOnUse" color-interpolation-filters="sRGB">
<feFlood flood-opacity="0" result="BackgroundImageFix"/>
<feColorMatrix in="SourceAlpha" type="matrix" values="0 0 0 0 0 0 0 0 0 0 0 0 0 0 0 0 0 0 127 0" result="hardAlpha"/>
<feOffset dy="15"/>
<feGaussianBlur stdDeviation="15"/>
<feComposite in2="hardAlpha" operator="out"/>
<feColorMatrix type="matrix" values="0 0 0 0 0 0 0 0 0 0 0 0 0 0 0 0 0 0 0.35 0"/>
<feBlend mode="normal" in2="BackgroundImageFix" result="effect1_dropShadow_691_153568"/>
<feBlend mode="normal" in="SourceGraphic" in2="effect1_dropShadow_691_153568" result="shape"/>
</filter>
<clipPath id="clip0_691_153568">
<rect x="30" y="15" width="273.588" height="153.893" rx="12" fill="white"/>
</clipPath>
</defs>
</svg>
