<svg width="334" height="214" viewBox="0 0 334 214" fill="none" xmlns="http://www.w3.org/2000/svg">
<g filter="url(#filter0_d_691_153570)">
<g clip-path="url(#clip0_691_153570)">
<rect x="30" y="15" width="273.588" height="153.893" rx="12" fill="url(#paint0_linear_691_153570)"/>
<path fill-rule="evenodd" clip-rule="evenodd" d="M45.8472 21.8384C46.2469 21.8384 46.5914 21.9277 46.8806 22.1063C47.174 22.2807 47.3994 22.5294 47.5568 22.8527C47.7184 23.1759 47.7992 23.5607 47.7992 24.0073C47.7992 24.4538 47.7184 24.8387 47.5568 25.1619C47.3994 25.4851 47.174 25.736 46.8806 25.9146C46.5914 26.089 46.2469 26.1762 45.8472 26.1762C45.4474 26.1762 45.1008 26.089 44.8074 25.9146C44.5182 25.736 44.2928 25.4851 44.1312 25.1619C43.9738 24.8387 43.8952 24.4538 43.8952 24.0073C43.8952 23.5607 43.9738 23.1759 44.1312 22.8527C44.2928 22.5294 44.5182 22.2807 44.8074 22.1063C45.1008 21.9277 45.4474 21.8384 45.8472 21.8384ZM45.8472 22.3168C45.558 22.3168 45.3071 22.3849 45.0944 22.5209C44.8818 22.6528 44.7181 22.8463 44.6032 23.1014C44.4884 23.3524 44.431 23.6543 44.431 24.0073C44.431 24.3602 44.4884 24.6643 44.6032 24.9195C44.7181 25.1704 44.8818 25.3639 45.0944 25.5C45.3071 25.6318 45.558 25.6977 45.8472 25.6977C46.1406 25.6977 46.3915 25.6318 46.5999 25.5C46.8125 25.3639 46.9763 25.1704 47.0911 24.9195C47.2059 24.6643 47.2633 24.3602 47.2633 24.0073C47.2633 23.6543 47.2059 23.3524 47.0911 23.1014C46.9763 22.8463 46.8125 22.6528 46.5999 22.5209C46.3915 22.3849 46.1406 22.3168 45.8472 22.3168ZM41.7432 21.9022C42.0281 21.9022 42.2748 21.9553 42.4831 22.0616C42.6958 22.1637 42.8616 22.3104 42.9807 22.5018C43.0998 22.6932 43.1593 22.9207 43.1593 23.1844C43.1593 23.448 43.0998 23.6756 42.9807 23.8669C42.8616 24.0583 42.6958 24.2071 42.4831 24.3135C42.2748 24.4155 42.0281 24.4666 41.7432 24.4666H40.7672V26.1124H40.2568V21.9022H41.7432ZM41.6666 23.9881C41.9983 23.9881 42.2407 23.9201 42.3938 23.784C42.5469 23.6437 42.6235 23.4438 42.6235 23.1844C42.6235 22.9207 42.5469 22.7208 42.3938 22.5847C42.2407 22.4486 41.9983 22.3806 41.6666 22.3806H40.7672V23.9881H41.6666ZM51.2314 22.068C50.9635 21.9149 50.6445 21.8384 50.2746 21.8384C49.9514 21.8384 49.6707 21.8958 49.4325 22.0106C49.1986 22.1254 49.0179 22.2785 48.8903 22.4699C48.767 22.657 48.7053 22.8633 48.7053 23.0887C48.7053 23.2545 48.7393 23.4098 48.8074 23.5544C48.8797 23.6947 48.9945 23.818 49.1518 23.9243C49.3134 24.0264 49.524 24.1072 49.7834 24.1667L50.7721 24.39C51.0188 24.4453 51.1868 24.5282 51.2761 24.6388C51.3654 24.7451 51.41 24.8663 51.41 25.0024C51.41 25.1513 51.3675 25.2788 51.2825 25.3852C51.1974 25.4872 51.0741 25.5659 50.9125 25.6212C50.7551 25.6722 50.568 25.6977 50.3511 25.6977C50.1172 25.6977 49.9088 25.6637 49.726 25.5957C49.5473 25.5276 49.3942 25.4319 49.2667 25.3086C49.1391 25.1853 49.0349 25.0428 48.9541 24.8812L48.5075 25.2448C48.6139 25.4192 48.75 25.5765 48.9158 25.7169C49.0817 25.8572 49.2794 25.9699 49.5091 26.055C49.743 26.1358 50.013 26.1762 50.3192 26.1762C50.6467 26.1762 50.9316 26.1251 51.174 26.0231C51.4164 25.921 51.6035 25.7785 51.7354 25.5957C51.8715 25.4085 51.9395 25.1959 51.9395 24.9578C51.9395 24.6898 51.8587 24.4666 51.6971 24.288C51.5397 24.1051 51.2591 23.969 50.8551 23.8797L49.9428 23.6756C49.6622 23.6118 49.475 23.5246 49.3815 23.414C49.2879 23.2992 49.2411 23.1674 49.2411 23.0185C49.2411 22.8867 49.2752 22.7697 49.3432 22.6677C49.4113 22.5613 49.5176 22.4763 49.6622 22.4125C49.811 22.3487 49.9981 22.3168 50.2235 22.3168C50.5042 22.3168 50.7424 22.3742 50.938 22.489C51.1379 22.5996 51.3165 22.791 51.4738 23.0632L51.9012 22.7315C51.7226 22.438 51.4993 22.2169 51.2314 22.068ZM53.5191 26.1124H53.0088V21.9022H53.5191V26.1124ZM57.8563 22.3806V21.9022H54.4116V22.3806H55.8787V26.1124H56.3891V22.3806H57.8563ZM59.2566 26.1124H58.7462V21.9022H59.2566V26.1124ZM67.7238 21.9022H64.7703V26.1124H67.8195V25.6339H65.2806V24.2178H67.1816V23.7393H65.2806V22.3806H67.7238V21.9022ZM63.3875 21.9022V26.1124H62.756L60.9953 23.2929L60.5488 22.5019L60.1738 21.9022H60.7147L62.4689 24.709L62.9218 25.5192H62.9282L62.9027 24.8749V21.9022H63.3875Z" fill="black" fill-opacity="0.8"/>
<path d="M41.7442 26.5394C42.0292 26.5394 42.2759 26.5925 42.4843 26.6989C42.6969 26.8009 42.8628 26.9477 42.9819 27.1391C43.101 27.3304 43.1605 27.558 43.1605 27.8217C43.1605 28.0854 43.101 28.3129 42.9819 28.5043C42.8628 28.6957 42.6969 28.8445 42.4843 28.9508C42.2759 29.0529 42.0292 29.104 41.7442 29.104H40.7682V30.7499H40.2578V26.5394H41.7442ZM41.6677 28.6255C41.9994 28.6255 42.2419 28.5574 42.395 28.4213C42.5481 28.281 42.6246 28.0811 42.6246 27.8217C42.6246 27.558 42.5481 27.3581 42.395 27.222C42.2419 27.0859 41.9994 27.0178 41.6677 27.0178H40.7682V28.6255H41.6677Z" fill="black" fill-opacity="0.35"/>
<path d="M44.6619 30.2714H47.0734V30.7499H44.1516V26.5394H44.6619V30.2714Z" fill="black" fill-opacity="0.35"/>
<path d="M47.4412 30.7499L49.0808 26.5394H49.6868L51.32 30.7499H50.7777L49.5784 27.6111L49.3806 27.0242H49.3679L49.1828 27.592L47.9771 30.7499H47.4412ZM48.2451 29.5824V29.104H50.497V29.5824H48.2451Z" fill="black" fill-opacity="0.35"/>
<path d="M55.4265 29.6717C55.3372 29.9099 55.2096 30.1162 55.0437 30.2906C54.8778 30.4607 54.6822 30.5904 54.4568 30.6797C54.2356 30.769 53.9932 30.8137 53.7295 30.8137C53.3297 30.8137 52.9831 30.7265 52.6896 30.5521C52.4004 30.3735 52.175 30.1226 52.0134 29.7993C51.8561 29.4761 51.7774 29.0912 51.7774 28.6446C51.7774 28.1981 51.8561 27.8132 52.0134 27.4899C52.175 27.1667 52.4004 26.9179 52.6896 26.7435C52.9831 26.5649 53.3255 26.4756 53.7168 26.4756C53.9889 26.4756 54.2314 26.5139 54.444 26.5904C54.6567 26.6627 54.8374 26.7733 54.9863 26.9222C55.1394 27.0668 55.2606 27.2454 55.3499 27.458L54.8459 27.6941C54.7524 27.4517 54.6163 27.2688 54.4376 27.1454C54.2633 27.0178 54.0357 26.9541 53.755 26.9541C53.4701 26.9541 53.2192 27.0221 53.0022 27.1582C52.7853 27.29 52.6152 27.4814 52.4919 27.7324C52.3728 27.9833 52.3133 28.2874 52.3133 28.6446C52.3133 28.9976 52.3707 29.3017 52.4855 29.5569C52.6003 29.8078 52.7641 30.0013 52.9767 30.1374C53.1894 30.2693 53.4403 30.3352 53.7295 30.3352C54.0102 30.3352 54.2548 30.265 54.4632 30.1247C54.6716 29.9801 54.8225 29.7653 54.9161 29.4804L55.4265 29.6717Z" fill="black" fill-opacity="0.35"/>
<path d="M56.406 30.7499V26.5394H59.3598V27.0178H56.9164V28.3767H58.8175V28.8552H56.9164V30.2714H59.4555V30.7499H56.406Z" fill="black" fill-opacity="0.35"/>
<rect width="47.2275" height="8.54796" transform="translate(30 35.729)" fill="white" fill-opacity="0.5"/>
<path d="M42.5149 38.7463V41.0029H42.2413V38.7463H42.5149ZM41.0173 38.7463V41.0029H40.7437V38.7463H41.0173ZM42.3678 39.731V39.9874H40.8873V39.731H42.3678ZM43.8845 39.2591C44.0463 39.2591 44.1888 39.2945 44.3119 39.3651C44.4372 39.4358 44.5352 39.5384 44.6059 39.6729C44.6766 39.8051 44.7119 39.9635 44.7119 40.1481C44.7119 40.3328 44.6766 40.4923 44.6059 40.6268C44.5352 40.759 44.4372 40.8605 44.3119 40.9311C44.1888 41.0018 44.0463 41.0371 43.8845 41.0371C43.7249 41.0371 43.5824 41.0018 43.4571 40.9311C43.3317 40.8605 43.2337 40.759 43.163 40.6268C43.0924 40.4923 43.057 40.3328 43.057 40.1481C43.057 39.9635 43.0924 39.8051 43.163 39.6729C43.2337 39.5384 43.3317 39.4358 43.4571 39.3651C43.5824 39.2945 43.7249 39.2591 43.8845 39.2591ZM43.8845 39.4951C43.7682 39.4951 43.6691 39.5213 43.587 39.5737C43.5049 39.6261 43.4411 39.7014 43.3955 39.7994C43.3522 39.8951 43.3306 40.0114 43.3306 40.1481C43.3306 40.2826 43.3522 40.3989 43.3955 40.4969C43.4411 40.5949 43.5049 40.6701 43.587 40.7226C43.6691 40.775 43.7682 40.8012 43.8845 40.8012C44.0007 40.8012 44.0999 40.775 44.1819 40.7226C44.264 40.6701 44.3267 40.5949 44.37 40.4969C44.4156 40.3989 44.4384 40.2826 44.4384 40.1481C44.4384 40.0114 44.4156 39.8951 44.37 39.7994C44.3267 39.7014 44.264 39.6261 44.1819 39.5737C44.0999 39.5213 44.0007 39.4951 43.8845 39.4951ZM45.2269 41.0029V39.2933H45.4662L45.4833 39.56C45.5449 39.4552 45.6246 39.3788 45.7226 39.3309C45.8229 39.2831 45.9255 39.2591 46.0304 39.2591C46.1512 39.2591 46.2652 39.2865 46.3723 39.3412C46.4794 39.3959 46.5615 39.4803 46.6185 39.5942C46.6549 39.5167 46.7062 39.454 46.7723 39.4062C46.8384 39.356 46.9102 39.3196 46.9877 39.2968C47.0675 39.2717 47.1427 39.2591 47.2134 39.2591C47.3228 39.2591 47.4265 39.2819 47.5246 39.3275C47.6249 39.3731 47.7069 39.4438 47.7707 39.5395C47.8346 39.6353 47.8665 39.7583 47.8665 39.9088V41.0029H47.5929V39.9361C47.5929 39.7811 47.5542 39.6694 47.4767 39.6011C47.3992 39.5327 47.3035 39.4985 47.1895 39.4985C47.1006 39.4985 47.0174 39.5201 46.9399 39.5635C46.8624 39.6068 46.7997 39.6706 46.7518 39.7549C46.7062 39.8393 46.6834 39.943 46.6834 40.0661V41.0029H46.4099V39.9361C46.4099 39.7811 46.3712 39.6694 46.2937 39.6011C46.2162 39.5327 46.1204 39.4985 46.0064 39.4985C45.9312 39.4985 45.8537 39.519 45.7739 39.56C45.6964 39.5988 45.6315 39.6615 45.579 39.7481C45.5266 39.8347 45.5004 39.9487 45.5004 40.09V41.0029H45.2269ZM49.2004 41.0371C49.0385 41.0371 48.8938 41.0018 48.7661 40.9311C48.6408 40.8605 48.5428 40.759 48.4721 40.6268C48.4014 40.4923 48.3661 40.3328 48.3661 40.1481C48.3661 39.9635 48.4014 39.8051 48.4721 39.6729C48.5428 39.5384 48.6396 39.4358 48.7627 39.3651C48.8858 39.2945 49.026 39.2591 49.1833 39.2591C49.3429 39.2591 49.4785 39.2933 49.5902 39.3617C49.7041 39.4301 49.7908 39.5236 49.85 39.6421C49.9093 39.7583 49.9389 39.8894 49.9389 40.0353C49.9389 40.0741 49.9378 40.1094 49.9355 40.1413C49.9332 40.1732 49.9298 40.2017 49.9253 40.2268H48.5439V39.984H49.8056L49.6654 40.0114C49.6654 39.8472 49.6198 39.7207 49.5286 39.6318C49.4397 39.5429 49.3223 39.4985 49.1765 39.4985C49.0648 39.4985 48.9679 39.5247 48.8858 39.5771C48.806 39.6273 48.7434 39.7014 48.6978 39.7994C48.6545 39.8951 48.6328 40.0114 48.6328 40.1481C48.6328 40.2826 48.6556 40.3989 48.7012 40.4969C48.7468 40.5949 48.8106 40.6701 48.8927 40.7226C48.977 40.7727 49.0773 40.7978 49.1935 40.7978C49.3189 40.7978 49.4204 40.7738 49.4979 40.726C49.5776 40.6781 49.6415 40.6131 49.6893 40.5311L49.9047 40.6576C49.8614 40.7351 49.8056 40.8023 49.7372 40.8593C49.6711 40.9163 49.5925 40.9608 49.5013 40.9927C49.4124 41.0223 49.3121 41.0371 49.2004 41.0371Z" fill="black" fill-opacity="0.8"/>
<path d="M43.0352 48.1486V50.4053H42.7753V48.9863L42.8061 48.3914H42.8027L42.0607 50.4053H41.8282L41.0862 48.3914H41.0828L41.1136 48.9863V50.4053H40.8537V48.1486H41.2743L41.7701 49.5197L41.941 50.0839H41.9479L42.1223 49.5231L42.6146 48.1486H43.0352ZM45.1261 48.6957L44.3226 50.6925C44.2792 50.8042 44.2314 50.8919 44.1789 50.9558C44.1288 51.0219 44.0718 51.0686 44.008 51.0959C43.9464 51.1256 43.8746 51.1404 43.7926 51.1404C43.7151 51.1404 43.6433 51.129 43.5772 51.1062C43.5133 51.0857 43.4564 51.0572 43.4062 51.0207L43.4814 50.7814C43.527 50.8224 43.5749 50.852 43.625 50.8703C43.6775 50.8908 43.7288 50.9011 43.7789 50.9011C43.8382 50.9011 43.894 50.8828 43.9464 50.8463C43.9989 50.8099 44.0467 50.7358 44.0901 50.6241L44.1789 50.4019L44.008 49.995L43.4643 48.6957H43.7755L44.2029 49.8103L44.3089 50.1146L44.432 49.7761L44.832 48.6957H45.1261ZM46.6136 50.4053V48.1486H48.1967V48.4051H46.8871V49.1333H47.906V49.3898H46.8871V50.1488H48.248V50.4053H46.6136ZM48.7427 50.4053V48.6957H48.982L49.006 49.0786L48.9615 49.041C48.998 48.9498 49.047 48.8769 49.1086 48.8222C49.1701 48.7652 49.2408 48.7242 49.3205 48.6991C49.4026 48.674 49.4869 48.6615 49.5736 48.6615C49.6967 48.6615 49.8084 48.6854 49.9086 48.7333C50.0089 48.7789 50.0887 48.8495 50.148 48.9453C50.2095 49.041 50.2403 49.163 50.2403 49.3111V50.4053H49.9668V49.4069C49.9668 49.2177 49.9257 49.0866 49.8437 49.0137C49.7639 48.9384 49.6647 48.9008 49.5462 48.9008C49.4642 48.9008 49.3821 48.9202 49.3 48.959C49.218 48.9977 49.1496 49.0604 49.0949 49.147C49.0425 49.2336 49.0162 49.3499 49.0162 49.4958V50.4053H48.7427ZM51.2398 48.2102V49.9334C51.2398 50.0178 51.2637 50.0805 51.3116 50.1215C51.3594 50.1625 51.421 50.183 51.4962 50.183C51.5623 50.183 51.6193 50.1716 51.6671 50.1488C51.715 50.126 51.7583 50.0953 51.7971 50.0565L51.8928 50.2856C51.8404 50.3335 51.7777 50.3711 51.7048 50.3984C51.6341 50.4258 51.552 50.4395 51.4586 50.4395C51.372 50.4395 51.291 50.4246 51.2158 50.395C51.1406 50.3631 51.0802 50.3141 51.0346 50.248C50.9913 50.1796 50.9685 50.0907 50.9662 49.9813V48.2854L51.2398 48.2102ZM51.862 48.6957V48.9316H50.6243V48.6957H51.862ZM52.2687 50.4053V48.6957H52.491L52.5286 48.9761C52.5765 48.8712 52.646 48.7926 52.7372 48.7401C52.8306 48.6877 52.9435 48.6615 53.0757 48.6615C53.1053 48.6615 53.1372 48.6638 53.1714 48.6683C53.2079 48.6729 53.2386 48.682 53.2637 48.6957L53.2159 48.9453C53.1908 48.9362 53.1634 48.9293 53.1338 48.9248C53.1042 48.9202 53.062 48.9179 53.0073 48.9179C52.9366 48.9179 52.8648 48.9384 52.7919 48.9795C52.7212 49.0205 52.6619 49.0832 52.6141 49.1675C52.5662 49.2496 52.5423 49.3544 52.5423 49.4821V50.4053H52.2687ZM53.8012 48.3674C53.7397 48.3674 53.6895 48.3492 53.6508 48.3127C53.6143 48.274 53.5961 48.2238 53.5961 48.1623C53.5961 48.1007 53.6143 48.0517 53.6508 48.0153C53.6895 47.9765 53.7397 47.9571 53.8012 47.9571C53.8628 47.9571 53.9118 47.9765 53.9483 48.0153C53.987 48.0517 54.0064 48.1007 54.0064 48.1623C54.0064 48.2238 53.987 48.274 53.9483 48.3127C53.9118 48.3492 53.8628 48.3674 53.8012 48.3674ZM53.938 48.6957V50.4053H53.6645V48.6957H53.938ZM55.2873 50.4395C55.1254 50.4395 54.9807 50.4041 54.8531 50.3335C54.7277 50.2628 54.6297 50.1614 54.559 50.0292C54.4883 49.8947 54.453 49.7351 54.453 49.5505C54.453 49.3658 54.4883 49.2074 54.559 49.0752C54.6297 48.9407 54.7265 48.8381 54.8496 48.7675C54.9727 48.6968 55.1129 48.6615 55.2702 48.6615C55.4298 48.6615 55.5654 48.6957 55.6771 48.7641C55.791 48.8324 55.8777 48.9259 55.9369 49.0444C55.9962 49.1607 56.0258 49.2918 56.0258 49.4376C56.0258 49.4764 56.0247 49.5117 56.0224 49.5436C56.0201 49.5756 56.0167 49.604 56.0122 49.6291H54.6308V49.3864H55.8925L55.7523 49.4137C55.7523 49.2496 55.7067 49.1231 55.6155 49.0342C55.5266 48.9453 55.4092 48.9008 55.2634 48.9008C55.1517 48.9008 55.0548 48.927 54.9727 48.9795C54.8929 49.0296 54.8303 49.1037 54.7847 49.2017C54.7414 49.2975 54.7197 49.4137 54.7197 49.5505C54.7197 49.685 54.7425 49.8012 54.7881 49.8992C54.8337 49.9973 54.8975 50.0725 54.9796 50.1249C55.0639 50.175 55.1642 50.2001 55.2805 50.2001C55.4058 50.2001 55.5073 50.1762 55.5848 50.1283C55.6645 50.0805 55.7284 50.0155 55.7762 49.9334L55.9916 50.0599C55.9483 50.1374 55.8925 50.2047 55.8241 50.2617C55.758 50.3187 55.6794 50.3631 55.5882 50.395C55.4993 50.4246 55.399 50.4395 55.2873 50.4395ZM57.1615 50.4395C56.9951 50.4395 56.8412 50.4041 56.6999 50.3335C56.5609 50.2628 56.4537 50.1625 56.3785 50.0326L56.611 49.865C56.6612 49.9699 56.7341 50.052 56.8298 50.1112C56.9279 50.1705 57.0453 50.2001 57.182 50.2001C57.3028 50.2001 57.3974 50.1773 57.4658 50.1317C57.5342 50.0839 57.5684 50.0223 57.5684 49.9471C57.5684 49.8992 57.5524 49.8559 57.5205 49.8172C57.4909 49.7761 57.4328 49.7465 57.3461 49.7283L56.9358 49.6428C56.7694 49.6086 56.6498 49.5516 56.5768 49.4718C56.5062 49.3921 56.4708 49.2929 56.4708 49.1744C56.4708 49.0809 56.497 48.9954 56.5495 48.9179C56.6042 48.8404 56.6805 48.7789 56.7786 48.7333C56.8789 48.6854 56.9962 48.6615 57.1307 48.6615C57.2994 48.6615 57.4419 48.6945 57.5581 48.7606C57.6744 48.8268 57.761 48.9202 57.818 49.041L57.5889 49.1915C57.5502 49.0912 57.4875 49.0182 57.4009 48.9726C57.3142 48.9248 57.2242 48.9008 57.1307 48.9008C57.0487 48.9008 56.978 48.9122 56.9187 48.935C56.8618 48.9578 56.8173 48.9897 56.7854 49.0308C56.7558 49.0695 56.7409 49.114 56.7409 49.1641C56.7409 49.2143 56.758 49.261 56.7922 49.3043C56.8264 49.3453 56.8903 49.375 56.9837 49.3932L57.4111 49.4821C57.5707 49.514 57.6824 49.5664 57.7462 49.6394C57.81 49.7123 57.8419 49.8012 57.8419 49.9061C57.8419 50.0132 57.8134 50.1078 57.7564 50.1899C57.6995 50.2696 57.6197 50.3312 57.5171 50.3745C57.4145 50.4178 57.296 50.4395 57.1615 50.4395Z" fill="black" fill-opacity="0.8"/>
<path d="M41.0898 156.785H42.3823V157.042H40.8163V154.785H41.0898V156.785ZM43.4662 155.298C43.628 155.298 43.7705 155.333 43.8936 155.404C44.0189 155.474 44.117 155.577 44.1876 155.711C44.2583 155.844 44.2936 156.002 44.2936 156.187C44.2936 156.371 44.2583 156.531 44.1876 156.665C44.117 156.798 44.0189 156.899 43.8936 156.97C43.7705 157.04 43.628 157.076 43.4662 157.076C43.3066 157.076 43.1642 157.04 43.0388 156.97C42.9134 156.899 42.8154 156.798 42.7447 156.665C42.6741 156.531 42.6387 156.371 42.6387 156.187C42.6387 156.002 42.6741 155.844 42.7447 155.711C42.8154 155.577 42.9134 155.474 43.0388 155.404C43.1642 155.333 43.3066 155.298 43.4662 155.298ZM43.4662 155.534C43.3499 155.534 43.2508 155.56 43.1687 155.612C43.0867 155.665 43.0228 155.74 42.9772 155.838C42.9339 155.934 42.9123 156.05 42.9123 156.187C42.9123 156.321 42.9339 156.437 42.9772 156.535C43.0228 156.633 43.0867 156.709 43.1687 156.761C43.2508 156.814 43.3499 156.84 43.4662 156.84C43.5824 156.84 43.6816 156.814 43.7636 156.761C43.8457 156.709 43.9084 156.633 43.9517 156.535C43.9973 156.437 44.0201 156.321 44.0201 156.187C44.0201 156.05 43.9973 155.934 43.9517 155.838C43.9084 155.74 43.8457 155.665 43.7636 155.612C43.6816 155.56 43.5824 155.534 43.4662 155.534ZM46.2481 155.017L46.3096 155.26C46.3073 155.26 46.3039 155.26 46.2993 155.26C46.2948 155.26 46.2902 155.26 46.2857 155.26C46.174 155.26 46.0874 155.283 46.0258 155.328C45.9665 155.372 45.9369 155.442 45.9369 155.54L45.7694 155.455C45.7694 155.366 45.7899 155.289 45.8309 155.222C45.872 155.156 45.9278 155.106 45.9985 155.072C46.0691 155.036 46.1466 155.017 46.231 155.017C46.2332 155.017 46.2355 155.017 46.2378 155.017C46.2424 155.017 46.2458 155.017 46.2481 155.017ZM45.7283 156.823C45.8902 156.823 46.0167 156.86 46.1079 156.936C46.1991 157.008 46.2446 157.106 46.2446 157.23C46.2446 157.341 46.207 157.438 46.1318 157.52C46.0589 157.602 45.9597 157.665 45.8343 157.708C45.7112 157.754 45.5722 157.777 45.4172 157.777C45.1482 157.777 44.9465 157.731 44.812 157.64C44.6798 157.549 44.6137 157.439 44.6137 157.312C44.6137 157.22 44.6433 157.138 44.7026 157.065C44.7641 156.995 44.8667 156.955 45.0103 156.946L44.9864 156.997C44.9089 156.977 44.8428 156.942 44.7881 156.894C44.7356 156.844 44.7094 156.773 44.7094 156.679C44.7094 156.586 44.7436 156.506 44.812 156.44C44.8827 156.371 44.9864 156.329 45.1231 156.313L45.3044 156.406H45.2702C45.1585 156.417 45.0787 156.445 45.0308 156.491C44.9852 156.534 44.9624 156.582 44.9624 156.635C44.9624 156.698 44.9852 156.746 45.0308 156.778C45.0787 156.808 45.1448 156.823 45.2291 156.823H45.7283ZM45.4138 157.548C45.546 157.548 45.6543 157.534 45.7386 157.507C45.8252 157.479 45.889 157.444 45.9301 157.401C45.9711 157.357 45.9916 157.31 45.9916 157.26C45.9916 157.199 45.9665 157.15 45.9164 157.113C45.8685 157.077 45.7808 157.059 45.6531 157.059H45.1266C45.0536 157.059 44.9921 157.077 44.9419 157.113C44.8918 157.152 44.8667 157.204 44.8667 157.271C44.8667 157.355 44.9146 157.422 45.0103 157.472C45.1083 157.522 45.2428 157.548 45.4138 157.548ZM45.3898 155.298C45.5266 155.298 45.6474 155.323 45.7523 155.373C45.8594 155.421 45.9426 155.488 46.0019 155.575C46.0611 155.661 46.0908 155.762 46.0908 155.876C46.0908 155.987 46.0611 156.088 46.0019 156.176C45.9426 156.263 45.8594 156.331 45.7523 156.382C45.6474 156.429 45.5266 156.453 45.3898 156.453C45.1642 156.453 44.9909 156.4 44.8701 156.293C44.7493 156.183 44.6889 156.044 44.6889 155.876C44.6889 155.762 44.7185 155.661 44.7778 155.575C44.8394 155.488 44.9226 155.421 45.0274 155.373C45.1323 155.323 45.2531 155.298 45.3898 155.298ZM45.3898 155.52C45.2713 155.52 45.1722 155.553 45.0924 155.619C45.0126 155.683 44.9727 155.768 44.9727 155.876C44.9727 155.98 45.0126 156.066 45.0924 156.132C45.1722 156.198 45.2713 156.231 45.3898 156.231C45.5084 156.231 45.6075 156.198 45.6873 156.132C45.7671 156.066 45.807 155.98 45.807 155.876C45.807 155.768 45.7671 155.683 45.6873 155.619C45.6075 155.553 45.5084 155.52 45.3898 155.52ZM48.5015 155.298C48.6633 155.298 48.8058 155.333 48.9289 155.404C49.0542 155.474 49.1522 155.577 49.2229 155.711C49.2936 155.844 49.3289 156.002 49.3289 156.187C49.3289 156.371 49.2936 156.531 49.2229 156.665C49.1522 156.798 49.0542 156.899 48.9289 156.97C48.8058 157.04 48.6633 157.076 48.5015 157.076C48.3419 157.076 48.1994 157.04 48.0741 156.97C47.9487 156.899 47.8507 156.798 47.78 156.665C47.7094 156.531 47.674 156.371 47.674 156.187C47.674 156.002 47.7094 155.844 47.78 155.711C47.8507 155.577 47.9487 155.474 48.0741 155.404C48.1994 155.333 48.3419 155.298 48.5015 155.298ZM48.5015 155.534C48.3852 155.534 48.2861 155.56 48.204 155.612C48.1219 155.665 48.0581 155.74 48.0125 155.838C47.9692 155.934 47.9476 156.05 47.9476 156.187C47.9476 156.321 47.9692 156.437 48.0125 156.535C48.0581 156.633 48.1219 156.709 48.204 156.761C48.2861 156.814 48.3852 156.84 48.5015 156.84C48.6177 156.84 48.7169 156.814 48.7989 156.761C48.881 156.709 48.9437 156.633 48.987 156.535C49.0326 156.437 49.0554 156.321 49.0554 156.187C49.0554 156.05 49.0326 155.934 48.987 155.838C48.9437 155.74 48.881 155.665 48.7989 155.612C48.7169 155.56 48.6177 155.534 48.5015 155.534ZM50.4627 157.076C50.3533 157.076 50.2496 157.055 50.1516 157.014C50.0559 156.973 49.9772 156.907 49.9157 156.816C49.8564 156.722 49.8268 156.602 49.8268 156.453V155.332H50.1003V156.382C50.1003 156.555 50.1379 156.675 50.2131 156.741C50.2884 156.804 50.3944 156.836 50.5311 156.836C50.5949 156.836 50.6576 156.826 50.7192 156.806C50.7807 156.783 50.8354 156.749 50.8833 156.703C50.9334 156.655 50.9722 156.595 50.9996 156.522C51.0292 156.449 51.044 156.362 51.044 156.262V155.332H51.3175V157.042H51.0782L51.0611 156.782C51.0018 156.884 50.9209 156.959 50.8183 157.007C50.718 157.053 50.5995 157.076 50.4627 157.076ZM52.3576 154.846V156.57C52.3576 156.654 52.3815 156.717 52.4294 156.758C52.4773 156.799 52.5388 156.819 52.614 156.819C52.6802 156.819 52.7371 156.808 52.785 156.785C52.8329 156.762 52.8762 156.731 52.9149 156.693L53.0107 156.922C52.9582 156.97 52.8956 157.007 52.8226 157.035C52.752 157.062 52.6699 157.076 52.5764 157.076C52.4898 157.076 52.4089 157.061 52.3337 157.031C52.2585 156.999 52.198 156.95 52.1525 156.884C52.1091 156.816 52.0864 156.727 52.0841 156.618V154.922L52.3576 154.846ZM52.9799 155.332V155.568H51.7422V155.332H52.9799Z" fill="black" fill-opacity="0.8"/>
<g clip-path="url(#clip1_691_153570)">
<rect width="226.307" height="153.863" transform="translate(77.2275 15.0151)" fill="white" fill-opacity="0.5"/>
<circle cx="267.421" cy="25.2724" r="1.28219" fill="black" fill-opacity="0.8"/>
<circle cx="274.686" cy="25.2724" r="1.28219" fill="black" fill-opacity="0.8"/>
<g opacity="0.38">
<rect x="267.421" y="28.1572" width="7.26577" height="2.99179" rx="1.49589" fill="black"/>
</g>
<g filter="url(#filter1_ddd_691_153570)">
<circle cx="268.916" cy="29.6531" r="2.13699" fill="#FAFAFA"/>
</g>
<g filter="url(#filter2_ddd_691_153570)">
<g clip-path="url(#clip2_691_153570)">
<rect x="281.311" y="20.999" width="11.9671" height="11.9671" rx="3.84658" fill="url(#paint1_linear_691_153570)"/>
</g>
<rect x="281.097" y="20.7853" width="12.3945" height="12.3945" rx="4.06028" stroke="white" stroke-width="0.427398"/>
</g>
<path d="M88.6507 42.9492H88.2517V40.8506H87.5338V40.5084H89.3686V40.8506H88.6507V42.9492ZM92.0111 42.9492H91.6104V41.849H90.4852V42.9492H90.0861V40.5084H90.4852V41.5068H91.6104V40.5084H92.0111V42.9492ZM94.9091 40.5084V42.0877C94.9091 42.2681 94.8701 42.4261 94.7922 42.5619C94.7154 42.6966 94.6035 42.8006 94.4566 42.8741C94.3108 42.9464 94.1361 42.9826 93.9324 42.9826C93.6296 42.9826 93.3942 42.9025 93.2262 42.7422C93.0581 42.5819 92.9741 42.3615 92.9741 42.0811V40.5084H93.3748V42.0527C93.3748 42.2541 93.4215 42.4027 93.515 42.4984C93.6085 42.5942 93.7521 42.642 93.9457 42.642C94.3219 42.642 94.51 42.4445 94.51 42.0493V40.5084H94.9091ZM96.241 42.5903C96.1876 42.7973 96.0896 43.0639 95.9472 43.39H95.6583C95.7351 43.0895 95.7925 42.8101 95.8303 42.5519H96.216L96.241 42.5903ZM98.0534 43.6304C97.9444 43.6304 97.8531 43.6165 97.7796 43.5886V43.2531C97.8731 43.2764 97.9544 43.2881 98.0234 43.2881C98.2415 43.2881 98.3506 43.1501 98.3506 42.8741V40.5084H98.7513V42.8607C98.7513 43.11 98.6917 43.3004 98.5727 43.4317C98.4547 43.5642 98.2816 43.6304 98.0534 43.6304ZM101.639 40.5084V42.0877C101.639 42.2681 101.6 42.4261 101.522 42.5619C101.446 42.6966 101.334 42.8006 101.187 42.8741C101.041 42.9464 100.866 42.9826 100.663 42.9826C100.36 42.9826 100.124 42.9025 99.9564 42.7422C99.7883 42.5819 99.7043 42.3615 99.7043 42.0811V40.5084H100.105V42.0527C100.105 42.2541 100.152 42.4027 100.245 42.4984C100.339 42.5942 100.482 42.642 100.676 42.642C101.052 42.642 101.24 42.4445 101.24 42.0493V40.5084H101.639ZM102.606 42.9492V40.5084H103.005V42.607H104.038V42.9492H102.606ZM105.49 41.6219L106.068 40.5084H106.502L105.689 42.0026V42.9492H105.288V42.016L104.478 40.5084H104.913L105.49 41.6219ZM108.501 42.9492L109.466 40.8573H108.197V40.5117H109.885V40.7855L108.925 42.9492H108.501ZM111.057 42.5903C111.004 42.7973 110.906 43.0639 110.763 43.39H110.474C110.551 43.0895 110.608 42.8101 110.646 42.5519H111.032L111.057 42.5903ZM114.661 42.9492H113.006V42.652L113.636 42.0193C113.822 41.829 113.945 41.6943 114.005 41.6153C114.066 41.5351 114.11 41.46 114.138 41.3899C114.166 41.3198 114.18 41.2446 114.18 41.1645C114.18 41.0543 114.147 40.9675 114.08 40.9041C114.014 40.8406 113.923 40.8089 113.806 40.8089C113.713 40.8089 113.622 40.8261 113.534 40.8606C113.447 40.8951 113.346 40.9575 113.232 41.0476L113.02 40.7889C113.155 40.6742 113.287 40.593 113.415 40.5451C113.543 40.4972 113.68 40.4733 113.824 40.4733C114.051 40.4733 114.233 40.5329 114.37 40.652C114.507 40.7699 114.576 40.9291 114.576 41.1294C114.576 41.2396 114.556 41.3443 114.516 41.4433C114.477 41.5424 114.416 41.6448 114.334 41.7505C114.252 41.8551 114.117 41.997 113.926 42.1762L113.502 42.5869V42.6036H114.661V42.9492ZM116.956 41.7288C116.956 42.1529 116.888 42.4678 116.751 42.6737C116.615 42.8797 116.407 42.9826 116.126 42.9826C115.855 42.9826 115.649 42.8763 115.509 42.6637C115.368 42.4511 115.298 42.1395 115.298 41.7288C115.298 41.2981 115.366 40.9809 115.502 40.7772C115.639 40.5724 115.847 40.47 116.126 40.47C116.399 40.47 116.606 40.5768 116.746 40.7905C116.886 41.0042 116.956 41.317 116.956 41.7288ZM115.696 41.7288C115.696 42.0616 115.73 42.2992 115.797 42.4417C115.866 42.5841 115.976 42.6554 116.126 42.6554C116.277 42.6554 116.386 42.583 116.455 42.4383C116.525 42.2937 116.56 42.0571 116.56 41.7288C116.56 41.4016 116.525 41.1651 116.455 41.0192C116.386 40.8723 116.277 40.7989 116.126 40.7989C115.976 40.7989 115.866 40.8707 115.797 41.0142C115.73 41.1578 115.696 41.396 115.696 41.7288ZM119.251 42.9492H117.597V42.652L118.226 42.0193C118.412 41.829 118.535 41.6943 118.595 41.6153C118.656 41.5351 118.701 41.46 118.729 41.3899C118.757 41.3198 118.771 41.2446 118.771 41.1645C118.771 41.0543 118.737 40.9675 118.67 40.9041C118.605 40.8406 118.513 40.8089 118.397 40.8089C118.303 40.8089 118.212 40.8261 118.124 40.8606C118.038 40.8951 117.937 40.9575 117.822 41.0476L117.61 40.7889C117.746 40.6742 117.878 40.593 118.006 40.5451C118.134 40.4972 118.27 40.4733 118.415 40.4733C118.642 40.4733 118.824 40.5329 118.961 40.652C119.098 40.7699 119.166 40.9291 119.166 41.1294C119.166 41.2396 119.146 41.3443 119.106 41.4433C119.067 41.5424 119.007 41.6448 118.924 41.7505C118.843 41.8551 118.707 41.997 118.517 42.1762L118.093 42.5869V42.6036H119.251V42.9492ZM121.547 42.9492H119.892V42.652L120.522 42.0193C120.707 41.829 120.83 41.6943 120.891 41.6153C120.952 41.5351 120.996 41.46 121.024 41.3899C121.052 41.3198 121.066 41.2446 121.066 41.1645C121.066 41.0543 121.032 40.9675 120.966 40.9041C120.9 40.8406 120.809 40.8089 120.692 40.8089C120.598 40.8089 120.508 40.8261 120.42 40.8606C120.333 40.8951 120.232 40.9575 120.118 41.0476L119.905 40.7889C120.041 40.6742 120.173 40.593 120.301 40.5451C120.429 40.4972 120.566 40.4733 120.71 40.4733C120.937 40.4733 121.119 40.5329 121.256 40.652C121.393 40.7699 121.461 40.9291 121.461 41.1294C121.461 41.2396 121.441 41.3443 121.401 41.4433C121.362 41.5424 121.302 41.6448 121.219 41.7505C121.138 41.8551 121.002 41.997 120.812 42.1762L120.388 42.5869V42.6036H121.547V42.9492Z" fill="black" fill-opacity="0.6"/>
<path d="M91.3969 48.2909V48.8038H89.8241V52.8042H89.277V48.8038H87.7042V48.2909H91.3969ZM92.9093 49.3166C93.233 49.3166 93.5179 49.3873 93.7641 49.5286C94.0148 49.6699 94.2109 49.8751 94.3522 50.1441C94.4935 50.4085 94.5642 50.7253 94.5642 51.0946C94.5642 51.4639 94.4935 51.783 94.3522 52.052C94.2109 52.3164 94.0148 52.5193 93.7641 52.6606C93.5179 52.8019 93.233 52.8726 92.9093 52.8726C92.5902 52.8726 92.3052 52.8019 92.0545 52.6606C91.8038 52.5193 91.6077 52.3164 91.4664 52.052C91.3251 51.783 91.2544 51.4639 91.2544 51.0946C91.2544 50.7253 91.3251 50.4085 91.4664 50.1441C91.6077 49.8751 91.8038 49.6699 92.0545 49.5286C92.3052 49.3873 92.5902 49.3166 92.9093 49.3166ZM92.9093 49.7885C92.6768 49.7885 92.4785 49.8409 92.3144 49.9458C92.1502 50.0506 92.0226 50.2011 91.9314 50.3971C91.8448 50.5886 91.8015 50.8211 91.8015 51.0946C91.8015 51.3636 91.8448 51.5961 91.9314 51.7921C92.0226 51.9882 92.1502 52.1386 92.3144 52.2435C92.4785 52.3483 92.6768 52.4007 92.9093 52.4007C93.1418 52.4007 93.3401 52.3483 93.5042 52.2435C93.6684 52.1386 93.7937 51.9882 93.8803 51.7921C93.9715 51.5961 94.0171 51.3636 94.0171 51.0946C94.0171 50.8211 93.9715 50.5886 93.8803 50.3971C93.7937 50.2011 93.6684 50.0506 93.5042 49.9458C93.3401 49.8409 93.1418 49.7885 92.9093 49.7885ZM96.9276 52.8726C96.6449 52.8726 96.3851 52.8019 96.148 52.6606C95.911 52.5193 95.7218 52.3164 95.5804 52.052C95.4391 51.783 95.3684 51.4639 95.3684 51.0946C95.3684 50.7162 95.4437 50.3948 95.5941 50.1304C95.7446 49.866 95.9429 49.6654 96.189 49.5286C96.4352 49.3873 96.6996 49.3166 96.9823 49.3166C97.2649 49.3166 97.5088 49.3896 97.714 49.5355C97.9237 49.6813 98.0628 49.8751 98.1311 50.1167L98.0628 50.1646V47.8122H98.6098V52.8042H98.1311L98.0833 51.9768L98.1585 51.9357C98.1266 52.1363 98.0491 52.3073 97.926 52.4486C97.8075 52.5854 97.6593 52.6902 97.4815 52.7632C97.3083 52.8361 97.1236 52.8726 96.9276 52.8726ZM96.9823 52.3939C97.2011 52.3939 97.3903 52.3392 97.5499 52.2298C97.714 52.1204 97.8394 51.9654 97.926 51.7648C98.0172 51.5596 98.0628 51.3203 98.0628 51.0467C98.0628 50.7869 98.0172 50.5635 97.926 50.3766C97.8394 50.1897 97.7163 50.0461 97.5567 49.9458C97.4017 49.8455 97.2194 49.7953 97.0096 49.7953C96.6632 49.7953 96.3942 49.9138 96.2027 50.1509C96.0112 50.388 95.9155 50.7025 95.9155 51.0946C95.9155 51.4867 96.009 51.8012 96.1959 52.0383C96.3828 52.2754 96.6449 52.3939 96.9823 52.3939ZM101.878 50.5954C101.878 50.3401 101.81 50.1441 101.673 50.0073C101.536 49.866 101.343 49.7953 101.092 49.7953C100.855 49.7953 100.654 49.8477 100.49 49.9526C100.326 50.0529 100.205 50.217 100.128 50.445L99.6831 50.1714C99.7743 49.9161 99.943 49.711 100.189 49.556C100.435 49.3964 100.741 49.3166 101.106 49.3166C101.352 49.3166 101.575 49.3599 101.776 49.4466C101.976 49.5286 102.134 49.6563 102.248 49.8295C102.366 49.9982 102.425 50.217 102.425 50.486V52.1409C102.425 52.305 102.512 52.3871 102.685 52.3871C102.772 52.3871 102.856 52.3757 102.938 52.3529L102.911 52.7837C102.82 52.8293 102.701 52.8521 102.555 52.8521C102.423 52.8521 102.305 52.827 102.2 52.7768C102.095 52.7267 102.013 52.6515 101.953 52.5512C101.894 52.4463 101.865 52.3164 101.865 52.1614V52.093L102.001 52.1135C101.947 52.2913 101.853 52.4372 101.721 52.5512C101.589 52.6606 101.441 52.7427 101.276 52.7974C101.112 52.8475 100.951 52.8726 100.791 52.8726C100.59 52.8726 100.403 52.8384 100.23 52.77C100.057 52.7016 99.9179 52.599 99.8131 52.4623C99.7128 52.321 99.6626 52.1477 99.6626 51.9426C99.6626 51.6873 99.747 51.4776 99.9156 51.3134C100.089 51.1448 100.328 51.0308 100.634 50.9715L101.988 50.7048V51.1562L100.887 51.3818C100.663 51.4274 100.497 51.4912 100.387 51.5733C100.278 51.6554 100.223 51.7693 100.223 51.9152C100.223 52.0565 100.278 52.1728 100.387 52.264C100.501 52.3506 100.661 52.3939 100.866 52.3939C100.998 52.3939 101.124 52.3779 101.242 52.346C101.365 52.3096 101.475 52.2571 101.571 52.1887C101.666 52.1158 101.741 52.0269 101.796 51.922C101.851 51.8126 101.878 51.685 101.878 51.5391V50.5954ZM106.365 49.385L104.758 53.3786C104.671 53.602 104.576 53.7775 104.471 53.9052C104.37 54.0374 104.256 54.1308 104.129 54.1855C104.006 54.2448 103.862 54.2744 103.698 54.2744C103.543 54.2744 103.399 54.2517 103.267 54.2061C103.14 54.165 103.026 54.108 102.925 54.0351L103.076 53.5564C103.167 53.6385 103.263 53.6977 103.363 53.7342C103.468 53.7752 103.57 53.7958 103.671 53.7958C103.789 53.7958 103.901 53.7593 104.006 53.6863C104.111 53.6134 104.206 53.4652 104.293 53.2419L104.471 52.7974L104.129 51.9836L103.042 49.385H103.664L104.519 51.6143L104.731 52.2229L104.977 51.5459L105.777 49.385H106.365ZM109.887 48.2909V52.8042H109.34V48.2909H109.887ZM114.853 47.778C114.971 47.778 115.083 47.7917 115.188 47.819C115.293 47.8464 115.375 47.8851 115.434 47.9353L115.291 48.3798C115.236 48.3433 115.177 48.3182 115.113 48.3046C115.049 48.2863 114.978 48.2772 114.901 48.2772C114.705 48.2772 114.552 48.3251 114.443 48.4208C114.333 48.512 114.278 48.6601 114.278 48.8653V49.385V49.5628V52.8042H113.731V48.8106C113.731 48.6601 113.754 48.5211 113.8 48.3935C113.845 48.2658 113.914 48.1564 114.005 48.0652C114.101 47.974 114.219 47.9034 114.361 47.8532C114.502 47.8031 114.666 47.778 114.853 47.778ZM115.42 49.385V49.8569H113.048V49.385H115.42ZM117.485 52.8726C117.161 52.8726 116.872 52.8019 116.617 52.6606C116.366 52.5193 116.17 52.3164 116.028 52.052C115.887 51.783 115.816 51.4639 115.816 51.0946C115.816 50.7253 115.887 50.4085 116.028 50.1441C116.17 49.8751 116.364 49.6699 116.61 49.5286C116.856 49.3873 117.136 49.3166 117.451 49.3166C117.77 49.3166 118.041 49.385 118.265 49.5218C118.493 49.6586 118.666 49.8455 118.784 50.0825C118.903 50.315 118.962 50.5772 118.962 50.8689C118.962 50.9464 118.96 51.0171 118.955 51.0809C118.951 51.1448 118.944 51.2017 118.935 51.2519H116.172V50.7664H118.695L118.415 50.8211C118.415 50.4928 118.324 50.2398 118.141 50.062C117.964 49.8842 117.729 49.7953 117.437 49.7953C117.214 49.7953 117.02 49.8477 116.856 49.9526C116.696 50.0529 116.571 50.2011 116.48 50.3971C116.393 50.5886 116.35 50.8211 116.35 51.0946C116.35 51.3636 116.395 51.5961 116.487 51.7921C116.578 51.9882 116.705 52.1386 116.87 52.2435C117.038 52.3437 117.239 52.3939 117.471 52.3939C117.722 52.3939 117.925 52.346 118.08 52.2503C118.24 52.1546 118.367 52.0246 118.463 51.8605L118.894 52.1135C118.807 52.2685 118.695 52.403 118.559 52.517C118.426 52.631 118.269 52.7199 118.087 52.7837C117.909 52.8429 117.708 52.8726 117.485 52.8726ZM121.432 52.8726C121.108 52.8726 120.819 52.8019 120.563 52.6606C120.313 52.5193 120.117 52.3164 119.975 52.052C119.834 51.783 119.763 51.4639 119.763 51.0946C119.763 50.7253 119.834 50.4085 119.975 50.1441C120.117 49.8751 120.31 49.6699 120.556 49.5286C120.803 49.3873 121.083 49.3166 121.398 49.3166C121.717 49.3166 121.988 49.385 122.211 49.5218C122.439 49.6586 122.613 49.8455 122.731 50.0825C122.85 50.315 122.909 50.5772 122.909 50.8689C122.909 50.9464 122.907 51.0171 122.902 51.0809C122.897 51.1448 122.891 51.2017 122.881 51.2519H120.119V50.7664H122.642L122.362 50.8211C122.362 50.4928 122.271 50.2398 122.088 50.062C121.91 49.8842 121.676 49.7953 121.384 49.7953C121.161 49.7953 120.967 49.8477 120.803 49.9526C120.643 50.0529 120.518 50.2011 120.427 50.3971C120.34 50.5886 120.297 50.8211 120.297 51.0946C120.297 51.3636 120.342 51.5961 120.433 51.7921C120.525 51.9882 120.652 52.1386 120.816 52.2435C120.985 52.3437 121.186 52.3939 121.418 52.3939C121.669 52.3939 121.872 52.346 122.027 52.2503C122.186 52.1546 122.314 52.0246 122.41 51.8605L122.84 52.1135C122.754 52.2685 122.642 52.403 122.505 52.517C122.373 52.631 122.216 52.7199 122.034 52.7837C121.856 52.8429 121.655 52.8726 121.432 52.8726ZM124.469 47.8122V51.9357C124.469 52.109 124.501 52.2298 124.565 52.2982C124.629 52.362 124.731 52.3939 124.872 52.3939C124.964 52.3939 125.039 52.3871 125.098 52.3734C125.157 52.3597 125.237 52.3346 125.337 52.2982L125.249 52.7768C125.176 52.8088 125.096 52.8316 125.009 52.8452C124.923 52.8635 124.834 52.8726 124.743 52.8726C124.464 52.8726 124.257 52.7974 124.12 52.6469C123.988 52.4965 123.922 52.2662 123.922 51.9562V47.8122H124.469ZM131.009 48.7559L131.132 49.2414C131.127 49.2414 131.12 49.2414 131.111 49.2414C131.102 49.2414 131.093 49.2414 131.084 49.2414C130.861 49.2414 130.687 49.287 130.564 49.3782C130.446 49.4648 130.386 49.6061 130.386 49.8022L130.051 49.6312C130.051 49.4534 130.092 49.2984 130.174 49.1662C130.257 49.034 130.368 48.9337 130.51 48.8653C130.651 48.7924 130.806 48.7559 130.975 48.7559C130.979 48.7559 130.984 48.7559 130.988 48.7559C130.997 48.7559 131.004 48.7559 131.009 48.7559ZM129.969 52.3665C130.293 52.3665 130.546 52.4418 130.728 52.5922C130.911 52.7381 131.002 52.9341 131.002 53.1803C131.002 53.4037 130.927 53.5974 130.776 53.7616C130.63 53.9257 130.432 54.0511 130.181 54.1377C129.935 54.2289 129.657 54.2744 129.347 54.2744C128.809 54.2744 128.406 54.1833 128.137 54.0009C127.872 53.8186 127.74 53.5997 127.74 53.3444C127.74 53.1621 127.799 52.998 127.918 52.8521C128.041 52.7107 128.246 52.631 128.533 52.6127L128.485 52.7153C128.33 52.6743 128.198 52.6059 128.089 52.5101C127.984 52.4099 127.931 52.2662 127.931 52.0793C127.931 51.8924 128 51.7329 128.137 51.6006C128.278 51.4639 128.485 51.3795 128.759 51.3476L129.121 51.5323H129.053C128.83 51.5551 128.67 51.612 128.574 51.7032C128.483 51.7898 128.438 51.8856 128.438 51.9904C128.438 52.1181 128.483 52.2138 128.574 52.2776C128.67 52.3369 128.802 52.3665 128.971 52.3665H129.969ZM129.34 53.8163C129.605 53.8163 129.821 53.7889 129.99 53.7342C130.163 53.6795 130.291 53.6088 130.373 53.5222C130.455 53.4356 130.496 53.3422 130.496 53.2419C130.496 53.1188 130.446 53.0207 130.345 52.9478C130.25 52.8749 130.074 52.8384 129.819 52.8384H128.766C128.62 52.8384 128.497 52.8749 128.396 52.9478C128.296 53.0253 128.246 53.1302 128.246 53.2624C128.246 53.431 128.342 53.5655 128.533 53.6658C128.729 53.7661 128.998 53.8163 129.34 53.8163ZM129.292 49.3166C129.566 49.3166 129.807 49.3668 130.017 49.4671C130.231 49.5628 130.398 49.6973 130.516 49.8705C130.635 50.0438 130.694 50.2444 130.694 50.4723C130.694 50.6957 130.635 50.8963 130.516 51.0741C130.398 51.2473 130.231 51.3841 130.017 51.4844C129.807 51.5801 129.566 51.628 129.292 51.628C128.841 51.628 128.494 51.5209 128.253 51.3066C128.011 51.0878 127.89 50.8097 127.89 50.4723C127.89 50.2444 127.95 50.0438 128.068 49.8705C128.191 49.6973 128.358 49.5628 128.567 49.4671C128.777 49.3668 129.019 49.3166 129.292 49.3166ZM129.292 49.7611C129.055 49.7611 128.857 49.8272 128.697 49.9594C128.538 50.0871 128.458 50.258 128.458 50.4723C128.458 50.682 128.538 50.853 128.697 50.9852C128.857 51.1174 129.055 51.1835 129.292 51.1835C129.529 51.1835 129.728 51.1174 129.887 50.9852C130.047 50.853 130.127 50.682 130.127 50.4723C130.127 50.258 130.047 50.0871 129.887 49.9594C129.728 49.8272 129.529 49.7611 129.292 49.7611ZM131.769 52.8042V49.385H132.214L132.289 49.9458C132.385 49.7361 132.524 49.5788 132.706 49.4739C132.893 49.3691 133.119 49.3166 133.383 49.3166C133.442 49.3166 133.506 49.3212 133.575 49.3303C133.648 49.3394 133.709 49.3577 133.759 49.385L133.664 49.8842C133.613 49.866 133.559 49.8523 133.499 49.8432C133.44 49.8341 133.356 49.8295 133.246 49.8295C133.105 49.8295 132.961 49.8705 132.816 49.9526C132.674 50.0347 132.556 50.16 132.46 50.3287C132.364 50.4928 132.316 50.7025 132.316 50.9578V52.8042H131.769ZM136.464 50.5954C136.464 50.3401 136.396 50.1441 136.259 50.0073C136.122 49.866 135.928 49.7953 135.678 49.7953C135.441 49.7953 135.24 49.8477 135.076 49.9526C134.912 50.0529 134.791 50.217 134.713 50.445L134.269 50.1714C134.36 49.9161 134.529 49.711 134.775 49.556C135.021 49.3964 135.327 49.3166 135.691 49.3166C135.938 49.3166 136.161 49.3599 136.362 49.4466C136.562 49.5286 136.719 49.6563 136.833 49.8295C136.952 49.9982 137.011 50.217 137.011 50.486V52.1409C137.011 52.305 137.098 52.3871 137.271 52.3871C137.358 52.3871 137.442 52.3757 137.524 52.3529L137.497 52.7837C137.406 52.8293 137.287 52.8521 137.141 52.8521C137.009 52.8521 136.89 52.827 136.785 52.7768C136.681 52.7267 136.599 52.6515 136.539 52.5512C136.48 52.4463 136.45 52.3164 136.45 52.1614V52.093L136.587 52.1135C136.532 52.2913 136.439 52.4372 136.307 52.5512C136.175 52.6606 136.026 52.7427 135.862 52.7974C135.698 52.8475 135.536 52.8726 135.377 52.8726C135.176 52.8726 134.989 52.8384 134.816 52.77C134.643 52.7016 134.504 52.599 134.399 52.4623C134.299 52.321 134.248 52.1477 134.248 51.9426C134.248 51.6873 134.333 51.4776 134.501 51.3134C134.675 51.1448 134.914 51.0308 135.22 50.9715L136.574 50.7048V51.1562L135.473 51.3818C135.249 51.4274 135.083 51.4912 134.973 51.5733C134.864 51.6554 134.809 51.7693 134.809 51.9152C134.809 52.0565 134.864 52.1728 134.973 52.264C135.087 52.3506 135.247 52.3939 135.452 52.3939C135.584 52.3939 135.71 52.3779 135.828 52.346C135.951 52.3096 136.061 52.2571 136.156 52.1887C136.252 52.1158 136.327 52.0269 136.382 51.922C136.437 51.8126 136.464 51.685 136.464 51.5391V50.5954ZM139.014 48.414V51.8605C139.014 52.0292 139.062 52.1546 139.158 52.2366C139.253 52.3187 139.376 52.3597 139.527 52.3597C139.659 52.3597 139.773 52.3369 139.869 52.2913C139.964 52.2457 140.051 52.1842 140.129 52.1067L140.32 52.5649C140.215 52.6606 140.09 52.7358 139.944 52.7905C139.803 52.8452 139.639 52.8726 139.452 52.8726C139.278 52.8726 139.117 52.8429 138.966 52.7837C138.816 52.7199 138.695 52.6218 138.604 52.4896C138.517 52.3529 138.471 52.1751 138.467 51.9562V48.5644L139.014 48.414ZM140.259 49.385V49.8569H137.783V49.385H140.259ZM142.501 52.8726C142.177 52.8726 141.888 52.8019 141.633 52.6606C141.382 52.5193 141.186 52.3164 141.045 52.052C140.903 51.783 140.833 51.4639 140.833 51.0946C140.833 50.7253 140.903 50.4085 141.045 50.1441C141.186 49.8751 141.38 49.6699 141.626 49.5286C141.872 49.3873 142.152 49.3166 142.467 49.3166C142.786 49.3166 143.057 49.385 143.281 49.5218C143.509 49.6586 143.682 49.8455 143.8 50.0825C143.919 50.315 143.978 50.5772 143.978 50.8689C143.978 50.9464 143.976 51.0171 143.971 51.0809C143.967 51.1448 143.96 51.2017 143.951 51.2519H141.188V50.7664H143.712L143.431 50.8211C143.431 50.4928 143.34 50.2398 143.158 50.062C142.98 49.8842 142.745 49.7953 142.453 49.7953C142.23 49.7953 142.036 49.8477 141.872 49.9526C141.712 50.0529 141.587 50.2011 141.496 50.3971C141.409 50.5886 141.366 50.8211 141.366 51.0946C141.366 51.3636 141.412 51.5961 141.503 51.7921C141.594 51.9882 141.722 52.1386 141.886 52.2435C142.054 52.3437 142.255 52.3939 142.487 52.3939C142.738 52.3939 142.941 52.346 143.096 52.2503C143.256 52.1546 143.383 52.0246 143.479 51.8605L143.91 52.1135C143.823 52.2685 143.712 52.403 143.575 52.517C143.443 52.631 143.285 52.7199 143.103 52.7837C142.925 52.8429 142.725 52.8726 142.501 52.8726ZM146.373 47.778C146.492 47.778 146.604 47.7917 146.709 47.819C146.813 47.8464 146.895 47.8851 146.955 47.9353L146.811 48.3798C146.756 48.3433 146.697 48.3182 146.633 48.3046C146.57 48.2863 146.499 48.2772 146.421 48.2772C146.225 48.2772 146.073 48.3251 145.963 48.4208C145.854 48.512 145.799 48.6601 145.799 48.8653V49.385V49.5628V52.8042H145.252V48.8106C145.252 48.6601 145.275 48.5211 145.32 48.3935C145.366 48.2658 145.434 48.1564 145.526 48.0652C145.621 47.974 145.74 47.9034 145.881 47.8532C146.022 47.8031 146.187 47.778 146.373 47.778ZM146.941 49.385V49.8569H144.568V49.385H146.941ZM148.908 52.8726C148.689 52.8726 148.481 52.8316 148.285 52.7495C148.094 52.6674 147.937 52.5352 147.813 52.3529C147.695 52.166 147.636 51.9243 147.636 51.628V49.385H148.183V51.4844C148.183 51.8309 148.258 52.0702 148.408 52.2024C148.559 52.3301 148.771 52.3939 149.044 52.3939C149.172 52.3939 149.297 52.3734 149.42 52.3324C149.544 52.2868 149.653 52.2184 149.749 52.1272C149.849 52.0315 149.927 51.9107 149.981 51.7648C150.041 51.6189 150.07 51.4456 150.07 51.2451V49.385H150.617V52.8042H150.139L150.104 52.2845C149.986 52.4896 149.824 52.6401 149.619 52.7358C149.418 52.827 149.181 52.8726 148.908 52.8726ZM152.41 47.8122V51.9357C152.41 52.109 152.442 52.2298 152.506 52.2982C152.57 52.362 152.672 52.3939 152.814 52.3939C152.905 52.3939 152.98 52.3871 153.039 52.3734C153.099 52.3597 153.178 52.3346 153.279 52.2982L153.19 52.7768C153.117 52.8088 153.037 52.8316 152.95 52.8452C152.864 52.8635 152.775 52.8726 152.684 52.8726C152.406 52.8726 152.198 52.7974 152.061 52.6469C151.929 52.4965 151.863 52.2662 151.863 51.9562V47.8122H152.41ZM157.332 47.778C157.451 47.778 157.562 47.7917 157.667 47.819C157.772 47.8464 157.854 47.8851 157.913 47.9353L157.77 48.3798C157.715 48.3433 157.656 48.3182 157.592 48.3046C157.528 48.2863 157.458 48.2772 157.38 48.2772C157.184 48.2772 157.031 48.3251 156.922 48.4208C156.813 48.512 156.758 48.6601 156.758 48.8653V49.385V49.5628V52.8042H156.211V48.8106C156.211 48.6601 156.234 48.5211 156.279 48.3935C156.325 48.2658 156.393 48.1564 156.484 48.0652C156.58 47.974 156.699 47.9034 156.84 47.8532C156.981 47.8031 157.145 47.778 157.332 47.778ZM157.9 49.385V49.8569H155.527V49.385H157.9ZM159.951 49.3166C160.274 49.3166 160.559 49.3873 160.805 49.5286C161.056 49.6699 161.252 49.8751 161.394 50.1441C161.535 50.4085 161.606 50.7253 161.606 51.0946C161.606 51.4639 161.535 51.783 161.394 52.052C161.252 52.3164 161.056 52.5193 160.805 52.6606C160.559 52.8019 160.274 52.8726 159.951 52.8726C159.632 52.8726 159.347 52.8019 159.096 52.6606C158.845 52.5193 158.649 52.3164 158.508 52.052C158.366 51.783 158.296 51.4639 158.296 51.0946C158.296 50.7253 158.366 50.4085 158.508 50.1441C158.649 49.8751 158.845 49.6699 159.096 49.5286C159.347 49.3873 159.632 49.3166 159.951 49.3166ZM159.951 49.7885C159.718 49.7885 159.52 49.8409 159.356 49.9458C159.192 50.0506 159.064 50.2011 158.973 50.3971C158.886 50.5886 158.843 50.8211 158.843 51.0946C158.843 51.3636 158.886 51.5961 158.973 51.7921C159.064 51.9882 159.192 52.1386 159.356 52.2435C159.52 52.3483 159.718 52.4007 159.951 52.4007C160.183 52.4007 160.381 52.3483 160.546 52.2435C160.71 52.1386 160.835 51.9882 160.922 51.7921C161.013 51.5961 161.058 51.3636 161.058 51.0946C161.058 50.8211 161.013 50.5886 160.922 50.3971C160.835 50.2011 160.71 50.0506 160.546 49.9458C160.381 49.8409 160.183 49.7885 159.951 49.7885ZM162.635 52.8042V49.385H163.08L163.155 49.9458C163.251 49.7361 163.39 49.5788 163.572 49.4739C163.759 49.3691 163.985 49.3166 164.249 49.3166C164.309 49.3166 164.372 49.3212 164.441 49.3303C164.514 49.3394 164.575 49.3577 164.625 49.385L164.53 49.8842C164.48 49.866 164.425 49.8523 164.366 49.8432C164.306 49.8341 164.222 49.8295 164.113 49.8295C163.971 49.8295 163.828 49.8705 163.682 49.9526C163.54 50.0347 163.422 50.16 163.326 50.3287C163.23 50.4928 163.183 50.7025 163.183 50.9578V52.8042H162.635ZM165.153 51.9836C165.285 51.9836 165.392 52.0246 165.474 52.1067C165.556 52.1887 165.597 52.2959 165.597 52.4281C165.597 52.5603 165.556 52.6674 165.474 52.7495C165.392 52.8316 165.285 52.8726 165.153 52.8726C165.021 52.8726 164.914 52.8316 164.831 52.7495C164.749 52.6674 164.708 52.5603 164.708 52.4281C164.708 52.2959 164.749 52.1887 164.831 52.1067C164.914 52.0246 165.021 51.9836 165.153 51.9836ZM166.969 51.9836C167.102 51.9836 167.209 52.0246 167.291 52.1067C167.373 52.1887 167.414 52.2959 167.414 52.4281C167.414 52.5603 167.373 52.6674 167.291 52.7495C167.209 52.8316 167.102 52.8726 166.969 52.8726C166.837 52.8726 166.73 52.8316 166.648 52.7495C166.566 52.6674 166.525 52.5603 166.525 52.4281C166.525 52.2959 166.566 52.1887 166.648 52.1067C166.73 52.0246 166.837 51.9836 166.969 51.9836ZM168.786 51.9836C168.918 51.9836 169.025 52.0246 169.107 52.1067C169.189 52.1887 169.23 52.2959 169.23 52.4281C169.23 52.5603 169.189 52.6674 169.107 52.7495C169.025 52.8316 168.918 52.8726 168.786 52.8726C168.654 52.8726 168.546 52.8316 168.464 52.7495C168.382 52.6674 168.341 52.5603 168.341 52.4281C168.341 52.2959 168.382 52.1887 168.464 52.1067C168.546 52.0246 168.654 51.9836 168.786 51.9836Z" fill="black" fill-opacity="0.8"/>
<path d="M91.098 64.8521H90.8275V63.1124C90.8275 62.9677 90.832 62.8308 90.8409 62.7017C90.8175 62.7251 90.7914 62.7496 90.7624 62.7752C90.7335 62.8008 90.601 62.9093 90.3651 63.1007L90.2182 62.9104L90.8643 62.4112H91.098V64.8521Z" fill="black" fill-opacity="0.6"/>
<path d="M97.1949 64.9716C97.0128 64.9716 96.85 64.9318 96.7064 64.8523C96.5653 64.7728 96.455 64.6587 96.3755 64.51C96.2961 64.3587 96.2563 64.1792 96.2563 63.9715C96.2563 63.7637 96.2961 63.5855 96.3755 63.4368C96.455 63.2855 96.564 63.1701 96.7025 63.0906C96.841 63.0111 96.9987 62.9713 97.1756 62.9713C97.3551 62.9713 97.5077 63.0098 97.6334 63.0867C97.7616 63.1637 97.859 63.2688 97.9257 63.4022C97.9924 63.5329 98.0257 63.6804 98.0257 63.8445C98.0257 63.8881 98.0245 63.9279 98.0219 63.9638C98.0193 63.9997 98.0155 64.0317 98.0103 64.0599H96.4563V63.7868H97.8757L97.718 63.8176C97.718 63.633 97.6667 63.4906 97.5641 63.3906C97.4641 63.2906 97.3321 63.2406 97.1679 63.2406C97.0423 63.2406 96.9333 63.2701 96.841 63.3291C96.7512 63.3855 96.6807 63.4688 96.6294 63.5791C96.5807 63.6868 96.5563 63.8176 96.5563 63.9715C96.5563 64.1228 96.582 64.2535 96.6333 64.3638C96.6846 64.4741 96.7564 64.5587 96.8487 64.6177C96.9436 64.6741 97.0564 64.7023 97.1872 64.7023C97.3282 64.7023 97.4423 64.6754 97.5295 64.6215C97.6193 64.5677 97.6911 64.4946 97.7449 64.4023L97.9873 64.5446C97.9385 64.6318 97.8757 64.7074 97.7988 64.7715C97.7244 64.8357 97.6359 64.8857 97.5334 64.9216C97.4334 64.9549 97.3205 64.9716 97.1949 64.9716ZM98.611 64.9331V63.0098H98.8802L98.9072 63.4406L98.8572 63.3983C98.8982 63.2957 98.9533 63.2137 99.0226 63.1521C99.0918 63.088 99.1713 63.0419 99.2611 63.0137C99.3534 62.9855 99.4483 62.9713 99.5457 62.9713C99.6842 62.9713 99.8098 62.9983 99.9227 63.0521C100.036 63.1034 100.125 63.1829 100.192 63.2906C100.261 63.3983 100.296 63.5355 100.296 63.7022V64.9331H99.9881V63.8099C99.9881 63.5971 99.9419 63.4496 99.8496 63.3675C99.7598 63.2829 99.6483 63.2406 99.5149 63.2406C99.4226 63.2406 99.3303 63.2624 99.238 63.306C99.1457 63.3496 99.0687 63.4201 99.0072 63.5176C98.9482 63.615 98.9187 63.7458 98.9187 63.9099V64.9331H98.611ZM101.42 62.4636V64.4023C101.42 64.4972 101.447 64.5677 101.501 64.6138C101.555 64.66 101.624 64.6831 101.709 64.6831C101.783 64.6831 101.847 64.6703 101.901 64.6446C101.955 64.619 102.004 64.5843 102.047 64.5408L102.155 64.7985C102.096 64.8523 102.025 64.8946 101.943 64.9254C101.864 64.9562 101.771 64.9716 101.666 64.9716C101.569 64.9716 101.478 64.9549 101.393 64.9216C101.309 64.8857 101.241 64.8305 101.189 64.7562C101.141 64.6792 101.115 64.5792 101.112 64.4561V62.5482L101.42 62.4636ZM102.12 63.0098V63.2752H100.728V63.0098H102.12ZM102.578 64.9331V63.0098H102.828L102.87 63.3252C102.924 63.2073 103.002 63.1188 103.105 63.0598C103.21 63.0008 103.337 62.9713 103.486 62.9713C103.519 62.9713 103.555 62.9739 103.593 62.979C103.634 62.9842 103.669 62.9944 103.697 63.0098L103.643 63.2906C103.615 63.2804 103.584 63.2727 103.551 63.2675C103.518 63.2624 103.47 63.2598 103.409 63.2598C103.329 63.2598 103.248 63.2829 103.166 63.3291C103.087 63.3752 103.02 63.4458 102.966 63.5406C102.912 63.633 102.885 63.7509 102.885 63.8945V64.9331H102.578ZM105.729 63.0098L104.825 65.2562C104.776 65.3819 104.722 65.4806 104.663 65.5524C104.607 65.6268 104.543 65.6793 104.471 65.7101C104.402 65.7435 104.321 65.7601 104.229 65.7601C104.142 65.7601 104.061 65.7473 103.986 65.7217C103.915 65.6986 103.85 65.6665 103.794 65.6255L103.879 65.3562C103.93 65.4024 103.984 65.4357 104.04 65.4562C104.099 65.4793 104.157 65.4909 104.213 65.4909C104.28 65.4909 104.343 65.4703 104.402 65.4293C104.461 65.3883 104.515 65.3049 104.563 65.1793L104.663 64.9293L104.471 64.4715L103.859 63.0098H104.21L104.69 64.2638L104.81 64.6061L104.948 64.2253L105.398 63.0098H105.729ZM107.712 64.9331V63.0714C107.712 63.0278 107.712 62.9816 107.712 62.9329C107.714 62.8816 107.717 62.829 107.72 62.7752C107.632 62.8598 107.531 62.9342 107.416 62.9983C107.3 63.0598 107.182 63.1047 107.062 63.1329L106.981 62.8521C107.027 62.847 107.085 62.8303 107.154 62.8021C107.226 62.7713 107.3 62.7341 107.377 62.6905C107.457 62.6444 107.53 62.5957 107.597 62.5444C107.663 62.4931 107.714 62.4431 107.75 62.3944H108.02V64.9331H107.712Z" fill="black" fill-opacity="0.6"/>
<path d="M91.6757 75.1094H90.0712V74.8706L90.714 74.2245C90.9099 74.0264 91.039 73.8851 91.1013 73.8005C91.1637 73.7159 91.2104 73.6335 91.2416 73.5534C91.2727 73.4732 91.2883 73.387 91.2883 73.2946C91.2883 73.1644 91.2488 73.0614 91.1698 72.9857C91.0908 72.9089 90.9811 72.8705 90.8409 72.8705C90.7396 72.8705 90.6433 72.8872 90.5521 72.9206C90.4619 72.954 90.3612 73.0147 90.2499 73.1026L90.103 72.914C90.3278 72.727 90.5727 72.6335 90.8376 72.6335C91.0668 72.6335 91.2466 72.6925 91.3768 72.8104C91.507 72.9273 91.5722 73.0848 91.5722 73.2829C91.5722 73.4376 91.5287 73.5907 91.4419 73.742C91.3551 73.8934 91.1926 74.0848 90.9544 74.3164L90.4202 74.8389V74.8523H91.6757V75.1094Z" fill="black" fill-opacity="0.6"/>
<path d="M97.1949 75.2289C97.0128 75.2289 96.85 75.1891 96.7064 75.1097C96.5653 75.0302 96.455 74.916 96.3755 74.7673C96.2961 74.616 96.2563 74.4365 96.2563 74.2288C96.2563 74.0211 96.2961 73.8428 96.3755 73.6941C96.455 73.5428 96.564 73.4274 96.7025 73.3479C96.841 73.2684 96.9987 73.2287 97.1756 73.2287C97.3551 73.2287 97.5077 73.2671 97.6334 73.3441C97.7616 73.421 97.859 73.5261 97.9257 73.6595C97.9924 73.7903 98.0257 73.9377 98.0257 74.1018C98.0257 74.1454 98.0245 74.1852 98.0219 74.2211C98.0193 74.257 98.0155 74.289 98.0103 74.3173H96.4563V74.0441H97.8757L97.718 74.0749C97.718 73.8903 97.6667 73.748 97.5641 73.648C97.4641 73.5479 97.3321 73.4979 97.1679 73.4979C97.0423 73.4979 96.9333 73.5274 96.841 73.5864C96.7512 73.6428 96.6807 73.7262 96.6294 73.8364C96.5807 73.9441 96.5563 74.0749 96.5563 74.2288C96.5563 74.3801 96.582 74.5109 96.6333 74.6211C96.6846 74.7314 96.7564 74.816 96.8487 74.875C96.9436 74.9314 97.0564 74.9596 97.1872 74.9596C97.3282 74.9596 97.4423 74.9327 97.5295 74.8789C97.6193 74.825 97.6911 74.7519 97.7449 74.6596L97.9873 74.8019C97.9385 74.8891 97.8757 74.9648 97.7988 75.0289C97.7244 75.093 97.6359 75.143 97.5334 75.1789C97.4334 75.2122 97.3205 75.2289 97.1949 75.2289ZM98.611 75.1904V73.2671H98.8802L98.9072 73.698L98.8572 73.6556C98.8982 73.5531 98.9533 73.471 99.0226 73.4095C99.0918 73.3454 99.1713 73.2992 99.2611 73.271C99.3534 73.2428 99.4483 73.2287 99.5457 73.2287C99.6842 73.2287 99.8098 73.2556 99.9227 73.3095C100.036 73.3607 100.125 73.4402 100.192 73.5479C100.261 73.6556 100.296 73.7928 100.296 73.9595V75.1904H99.9881V74.0672C99.9881 73.8544 99.9419 73.7069 99.8496 73.6249C99.7598 73.5402 99.6483 73.4979 99.5149 73.4979C99.4226 73.4979 99.3303 73.5197 99.238 73.5633C99.1457 73.6069 99.0687 73.6774 99.0072 73.7749C98.9482 73.8723 98.9187 74.0031 98.9187 74.1672V75.1904H98.611ZM101.42 72.7209V74.6596C101.42 74.7545 101.447 74.825 101.501 74.8712C101.555 74.9173 101.624 74.9404 101.709 74.9404C101.783 74.9404 101.847 74.9276 101.901 74.9019C101.955 74.8763 102.004 74.8417 102.047 74.7981L102.155 75.0558C102.096 75.1097 102.025 75.152 101.943 75.1827C101.864 75.2135 101.771 75.2289 101.666 75.2289C101.569 75.2289 101.478 75.2122 101.393 75.1789C101.309 75.143 101.241 75.0879 101.189 75.0135C101.141 74.9366 101.115 74.8365 101.112 74.7135V72.8055L101.42 72.7209ZM102.12 73.2671V73.5326H100.728V73.2671H102.12ZM102.578 75.1904V73.2671H102.828L102.87 73.5826C102.924 73.4646 103.002 73.3761 103.105 73.3171C103.21 73.2582 103.337 73.2287 103.486 73.2287C103.519 73.2287 103.555 73.2312 103.593 73.2364C103.634 73.2415 103.669 73.2518 103.697 73.2671L103.643 73.5479C103.615 73.5377 103.584 73.53 103.551 73.5249C103.518 73.5197 103.47 73.5172 103.409 73.5172C103.329 73.5172 103.248 73.5402 103.166 73.5864C103.087 73.6326 103.02 73.7031 102.966 73.798C102.912 73.8903 102.885 74.0082 102.885 74.1519V75.1904H102.578ZM105.729 73.2671L104.825 75.5135C104.776 75.6392 104.722 75.7379 104.663 75.8097C104.607 75.8841 104.543 75.9367 104.471 75.9674C104.402 76.0008 104.321 76.0174 104.229 76.0174C104.142 76.0174 104.061 76.0046 103.986 75.979C103.915 75.9559 103.85 75.9238 103.794 75.8828L103.879 75.6136C103.93 75.6597 103.984 75.693 104.04 75.7136C104.099 75.7366 104.157 75.7482 104.213 75.7482C104.28 75.7482 104.343 75.7277 104.402 75.6866C104.461 75.6456 104.515 75.5623 104.563 75.4366L104.663 75.1866L104.471 74.7288L103.859 73.2671H104.21L104.69 74.5211L104.81 74.8635L104.948 74.4827L105.398 73.2671H105.729ZM107.272 75.1904V74.9404C107.525 74.7532 107.737 74.5891 107.906 74.448C108.078 74.307 108.215 74.1788 108.318 74.0634C108.42 73.948 108.494 73.839 108.537 73.7364C108.581 73.6313 108.603 73.5223 108.603 73.4095C108.603 73.2582 108.554 73.1364 108.456 73.044C108.361 72.9492 108.231 72.9017 108.064 72.9017C107.89 72.9017 107.75 72.9594 107.645 73.0748C107.54 73.1876 107.478 73.3389 107.46 73.5287L107.191 73.3671C107.214 73.2184 107.261 73.0876 107.333 72.9748C107.408 72.862 107.506 72.7735 107.629 72.7094C107.755 72.6453 107.904 72.6132 108.076 72.6132C108.206 72.6132 108.323 72.6325 108.426 72.6709C108.531 72.7094 108.62 72.7645 108.695 72.8363C108.769 72.9056 108.826 72.9889 108.864 73.0863C108.905 73.1838 108.926 73.2915 108.926 73.4095C108.926 73.5685 108.887 73.7249 108.81 73.8787C108.733 74.03 108.606 74.189 108.429 74.3557C108.252 74.5224 108.013 74.707 107.71 74.9096V74.9135C107.738 74.9109 107.777 74.9096 107.825 74.9096C107.877 74.9071 107.927 74.9058 107.976 74.9058C108.027 74.9032 108.065 74.9019 108.091 74.9019H108.979V75.1904H107.272Z" fill="black" fill-opacity="0.6"/>
<path d="M91.5838 83.5007C91.5838 83.6565 91.5399 83.7839 91.4519 83.883C91.3651 83.982 91.2416 84.0483 91.0813 84.0817V84.095C91.2772 84.1195 91.4225 84.1818 91.5171 84.282C91.6117 84.3822 91.659 84.5135 91.659 84.676C91.659 84.9086 91.5783 85.0878 91.4169 85.2136C91.2555 85.3382 91.0262 85.4006 90.729 85.4006C90.5999 85.4006 90.4814 85.3906 90.3734 85.3705C90.2666 85.3516 90.1625 85.3177 90.0612 85.2687V85.0049C90.167 85.0572 90.2794 85.0973 90.3985 85.1251C90.5187 85.1518 90.6322 85.1652 90.7391 85.1652C91.1609 85.1652 91.3718 84.9999 91.3718 84.6693C91.3718 84.3733 91.1392 84.2252 90.6739 84.2252H90.4335V83.9865H90.6773C90.8676 83.9865 91.0184 83.9448 91.1297 83.8613C91.241 83.7767 91.2967 83.6598 91.2967 83.5107C91.2967 83.3916 91.2555 83.2981 91.1731 83.2302C91.0919 83.1623 90.9811 83.1284 90.8409 83.1284C90.734 83.1284 90.6333 83.1428 90.5387 83.1718C90.4441 83.2007 90.3361 83.2541 90.2148 83.332L90.0746 83.1451C90.1748 83.066 90.29 83.0043 90.4202 82.9597C90.5515 82.9141 90.6895 82.8913 90.8342 82.8913C91.0713 82.8913 91.2555 82.9458 91.3868 83.0549C91.5182 83.1629 91.5838 83.3114 91.5838 83.5007Z" fill="black" fill-opacity="0.6"/>
<path d="M97.1949 85.4867C97.0128 85.4867 96.85 85.447 96.7064 85.3675C96.5653 85.288 96.455 85.1739 96.3755 85.0251C96.2961 84.8738 96.2563 84.6943 96.2563 84.4866C96.2563 84.2789 96.2961 84.1007 96.3755 83.9519C96.455 83.8006 96.564 83.6852 96.7025 83.6057C96.841 83.5262 96.9987 83.4865 97.1756 83.4865C97.3551 83.4865 97.5077 83.525 97.6334 83.6019C97.7616 83.6788 97.859 83.784 97.9257 83.9173C97.9924 84.0481 98.0257 84.1955 98.0257 84.3597C98.0257 84.4033 98.0245 84.443 98.0219 84.4789C98.0193 84.5148 98.0155 84.5469 98.0103 84.5751H96.4563V84.302H97.8757L97.718 84.3327C97.718 84.1481 97.6667 84.0058 97.5641 83.9058C97.4641 83.8058 97.3321 83.7557 97.1679 83.7557C97.0423 83.7557 96.9333 83.7852 96.841 83.8442C96.7512 83.9006 96.6807 83.984 96.6294 84.0942C96.5807 84.2019 96.5563 84.3327 96.5563 84.4866C96.5563 84.6379 96.582 84.7687 96.6333 84.8789C96.6846 84.9892 96.7564 85.0738 96.8487 85.1328C96.9436 85.1892 97.0564 85.2174 97.1872 85.2174C97.3282 85.2174 97.4423 85.1905 97.5295 85.1367C97.6193 85.0828 97.6911 85.0097 97.7449 84.9174L97.9873 85.0597C97.9385 85.1469 97.8757 85.2226 97.7988 85.2867C97.7244 85.3508 97.6359 85.4008 97.5334 85.4367C97.4334 85.47 97.3205 85.4867 97.1949 85.4867ZM98.611 85.4482V83.525H98.8802L98.9072 83.9558L98.8572 83.9135C98.8982 83.8109 98.9533 83.7288 99.0226 83.6673C99.0918 83.6032 99.1713 83.557 99.2611 83.5288C99.3534 83.5006 99.4483 83.4865 99.5457 83.4865C99.6842 83.4865 99.8098 83.5134 99.9227 83.5673C100.036 83.6186 100.125 83.698 100.192 83.8058C100.261 83.9135 100.296 84.0507 100.296 84.2173V85.4482H99.9881V84.325C99.9881 84.1122 99.9419 83.9647 99.8496 83.8827C99.7598 83.7981 99.6483 83.7557 99.5149 83.7557C99.4226 83.7557 99.3303 83.7775 99.238 83.8211C99.1457 83.8647 99.0687 83.9353 99.0072 84.0327C98.9482 84.1301 98.9187 84.2609 98.9187 84.4251V85.4482H98.611ZM101.42 82.9787V84.9174C101.42 85.0123 101.447 85.0828 101.501 85.129C101.555 85.1751 101.624 85.1982 101.709 85.1982C101.783 85.1982 101.847 85.1854 101.901 85.1597C101.955 85.1341 102.004 85.0995 102.047 85.0559L102.155 85.3136C102.096 85.3675 102.025 85.4098 101.943 85.4405C101.864 85.4713 101.771 85.4867 101.666 85.4867C101.569 85.4867 101.478 85.47 101.393 85.4367C101.309 85.4008 101.241 85.3457 101.189 85.2713C101.141 85.1944 101.115 85.0944 101.112 84.9713V83.0634L101.42 82.9787ZM102.12 83.525V83.7904H100.728V83.525H102.12ZM102.578 85.4482V83.525H102.828L102.87 83.8404C102.924 83.7224 103.002 83.6339 103.105 83.575C103.21 83.516 103.337 83.4865 103.486 83.4865C103.519 83.4865 103.555 83.489 103.593 83.4942C103.634 83.4993 103.669 83.5096 103.697 83.525L103.643 83.8058C103.615 83.7955 103.584 83.7878 103.551 83.7827C103.518 83.7775 103.47 83.775 103.409 83.775C103.329 83.775 103.248 83.7981 103.166 83.8442C103.087 83.8904 103.02 83.9609 102.966 84.0558C102.912 84.1481 102.885 84.2661 102.885 84.4097V85.4482H102.578ZM105.729 83.525L104.825 85.7714C104.776 85.897 104.722 85.9957 104.663 86.0675C104.607 86.1419 104.543 86.1945 104.471 86.2253C104.402 86.2586 104.321 86.2753 104.229 86.2753C104.142 86.2753 104.061 86.2624 103.986 86.2368C103.915 86.2137 103.85 86.1817 103.794 86.1406L103.879 85.8714C103.93 85.9175 103.984 85.9509 104.04 85.9714C104.099 85.9945 104.157 86.006 104.213 86.006C104.28 86.006 104.343 85.9855 104.402 85.9445C104.461 85.9034 104.515 85.8201 104.563 85.6944L104.663 85.4444L104.471 84.9867L103.859 83.525H104.21L104.69 84.7789L104.81 85.1213L104.948 84.7405L105.398 83.525H105.729ZM108.102 85.4867C107.877 85.4867 107.677 85.4341 107.502 85.329C107.331 85.2213 107.214 85.0738 107.152 84.8866L107.46 84.7289C107.491 84.8238 107.533 84.9072 107.587 84.979C107.641 85.0482 107.711 85.102 107.799 85.1405C107.888 85.179 108 85.1982 108.133 85.1982C108.246 85.1982 108.341 85.1777 108.418 85.1367C108.495 85.0956 108.554 85.0405 108.595 84.9713C108.636 84.8995 108.656 84.8174 108.656 84.7251C108.656 84.6328 108.638 84.5558 108.603 84.4943C108.569 84.4327 108.515 84.3879 108.441 84.3597C108.367 84.3289 108.269 84.3135 108.149 84.3135C108.12 84.3135 108.09 84.3148 108.056 84.3173C108.023 84.3173 107.988 84.3199 107.952 84.325V84.0173C107.976 84.0199 107.997 84.0212 108.018 84.0212C108.041 84.0212 108.061 84.0212 108.079 84.0212C108.267 84.0212 108.4 83.9853 108.479 83.9135C108.559 83.8391 108.599 83.7237 108.599 83.5673C108.599 83.4339 108.558 83.3326 108.476 83.2634C108.394 83.1941 108.277 83.1595 108.126 83.1595C107.964 83.1595 107.841 83.1954 107.756 83.2672C107.672 83.3365 107.605 83.4314 107.556 83.5519L107.264 83.4134C107.305 83.3057 107.366 83.2108 107.449 83.1288C107.531 83.0467 107.629 82.9826 107.745 82.9364C107.863 82.8903 107.992 82.8672 108.133 82.8672C108.31 82.8672 108.456 82.898 108.572 82.9595C108.687 83.0185 108.773 83.098 108.829 83.198C108.888 83.298 108.918 83.4083 108.918 83.5288C108.918 83.6211 108.905 83.7045 108.879 83.7788C108.854 83.8506 108.818 83.9135 108.772 83.9673C108.728 84.0212 108.678 84.0648 108.622 84.0981C108.565 84.1289 108.505 84.1494 108.441 84.1596V84.1673C108.526 84.1699 108.6 84.1866 108.664 84.2173C108.731 84.2481 108.787 84.2891 108.833 84.3404C108.879 84.3917 108.914 84.4507 108.937 84.5174C108.963 84.5815 108.976 84.6494 108.976 84.7212C108.976 84.87 108.938 85.002 108.864 85.1174C108.792 85.2328 108.691 85.3239 108.56 85.3905C108.429 85.4547 108.277 85.4867 108.102 85.4867Z" fill="black" fill-opacity="0.6"/>
<path d="M92.4 95.1935H91.1178V96.4757H90.6904V95.1935H89.4082V94.7661H90.6904V93.4839H91.1178V94.7661H92.4V95.1935Z" fill="black" fill-opacity="0.65"/>
<path d="M96.1332 96.7056L97.1218 94.1668H97.4872L98.4719 96.7056H98.145L97.4218 94.813L97.3026 94.4592H97.2949L97.1833 94.8015L96.4563 96.7056H96.1332ZM96.6179 96.0016V95.7131H97.9757V96.0016H96.6179ZM99.6466 96.744C99.4876 96.744 99.3414 96.7043 99.208 96.6248C99.0747 96.5453 98.9683 96.4312 98.8888 96.2824C98.8093 96.1311 98.7695 95.9516 98.7695 95.7439C98.7695 95.5311 98.8118 95.3503 98.8965 95.2016C98.9811 95.0528 99.0926 94.94 99.2311 94.8631C99.3696 94.7836 99.5183 94.7438 99.6773 94.7438C99.8363 94.7438 99.9735 94.7848 100.089 94.8669C100.207 94.949 100.285 95.0579 100.324 95.1939L100.285 95.2208V93.8976H100.593V96.7056H100.324L100.297 96.2401L100.339 96.2171C100.321 96.3299 100.277 96.426 100.208 96.5055C100.141 96.5825 100.058 96.6415 99.9581 96.6825C99.8607 96.7235 99.7568 96.744 99.6466 96.744ZM99.6773 96.4748C99.8004 96.4748 99.9068 96.444 99.9966 96.3825C100.089 96.3209 100.159 96.2337 100.208 96.1209C100.259 96.0055 100.285 95.8709 100.285 95.717C100.285 95.5708 100.259 95.4452 100.208 95.34C100.159 95.2349 100.09 95.1541 100 95.0977C99.9133 95.0413 99.8107 95.0131 99.6927 95.0131C99.4978 95.0131 99.3465 95.0797 99.2388 95.2131C99.1311 95.3464 99.0773 95.5234 99.0773 95.7439C99.0773 95.9645 99.1298 96.1414 99.235 96.2747C99.3401 96.4081 99.4876 96.4748 99.6773 96.4748ZM102.058 96.744C101.899 96.744 101.753 96.7043 101.62 96.6248C101.486 96.5453 101.38 96.4312 101.3 96.2824C101.221 96.1311 101.181 95.9516 101.181 95.7439C101.181 95.5311 101.223 95.3503 101.308 95.2016C101.393 95.0528 101.504 94.94 101.643 94.8631C101.781 94.7836 101.93 94.7438 102.089 94.7438C102.248 94.7438 102.385 94.7848 102.501 94.8669C102.619 94.949 102.697 95.0579 102.735 95.1939L102.697 95.2208V93.8976H103.004V96.7056H102.735L102.708 96.2401L102.751 96.2171C102.733 96.3299 102.689 96.426 102.62 96.5055C102.553 96.5825 102.47 96.6415 102.37 96.6825C102.272 96.7235 102.168 96.744 102.058 96.744ZM102.089 96.4748C102.212 96.4748 102.318 96.444 102.408 96.3825C102.501 96.3209 102.571 96.2337 102.62 96.1209C102.671 96.0055 102.697 95.8709 102.697 95.717C102.697 95.5708 102.671 95.4452 102.62 95.34C102.571 95.2349 102.502 95.1541 102.412 95.0977C102.325 95.0413 102.222 95.0131 102.104 95.0131C101.909 95.0131 101.758 95.0797 101.65 95.2131C101.543 95.3464 101.489 95.5234 101.489 95.7439C101.489 95.9645 101.541 96.1414 101.647 96.2747C101.752 96.4081 101.899 96.4748 102.089 96.4748ZM106.154 95.4631C106.154 95.3195 106.115 95.2092 106.039 95.1323C105.962 95.0528 105.853 95.0131 105.712 95.0131C105.578 95.0131 105.465 95.0426 105.373 95.1015C105.281 95.158 105.213 95.2503 105.169 95.3785L104.919 95.2246C104.97 95.081 105.065 94.9656 105.204 94.8784C105.342 94.7887 105.514 94.7438 105.719 94.7438C105.858 94.7438 105.983 94.7682 106.096 94.8169C106.209 94.8631 106.298 94.9349 106.362 95.0323C106.428 95.1272 106.462 95.2503 106.462 95.4016V96.3324C106.462 96.4248 106.51 96.4709 106.608 96.4709C106.657 96.4709 106.704 96.4645 106.75 96.4517L106.735 96.694C106.683 96.7197 106.617 96.7325 106.535 96.7325C106.46 96.7325 106.394 96.7184 106.335 96.6902C106.276 96.662 106.23 96.6197 106.196 96.5632C106.163 96.5043 106.146 96.4312 106.146 96.344V96.3055L106.223 96.3171C106.192 96.4171 106.14 96.4991 106.065 96.5632C105.991 96.6248 105.908 96.6709 105.815 96.7017C105.723 96.7299 105.632 96.744 105.542 96.744C105.429 96.744 105.324 96.7248 105.227 96.6863C105.129 96.6479 105.051 96.5902 104.992 96.5132C104.936 96.4337 104.908 96.3363 104.908 96.2209C104.908 96.0773 104.955 95.9593 105.05 95.867C105.147 95.7721 105.282 95.708 105.454 95.6747L106.215 95.5247V95.7785L105.596 95.9055C105.471 95.9311 105.377 95.967 105.315 96.0132C105.254 96.0593 105.223 96.1235 105.223 96.2055C105.223 96.285 105.254 96.3504 105.315 96.4017C105.379 96.4504 105.469 96.4748 105.585 96.4748C105.659 96.4748 105.73 96.4658 105.796 96.4478C105.865 96.4273 105.927 96.3978 105.981 96.3594C106.035 96.3183 106.077 96.2683 106.108 96.2094C106.139 96.1478 106.154 96.076 106.154 95.9939V95.4631ZM107.209 96.7056V94.7823H107.479L107.506 95.2131L107.456 95.1708C107.497 95.0682 107.552 94.9861 107.621 94.9246C107.69 94.8605 107.77 94.8143 107.86 94.7861C107.952 94.7579 108.047 94.7438 108.144 94.7438C108.283 94.7438 108.408 94.7707 108.521 94.8246C108.634 94.8759 108.724 94.9554 108.79 95.0631C108.86 95.1708 108.894 95.308 108.894 95.4747V96.7056H108.587V95.5824C108.587 95.3695 108.54 95.2221 108.448 95.14C108.358 95.0554 108.247 95.0131 108.113 95.0131C108.021 95.0131 107.929 95.0349 107.836 95.0785C107.744 95.1221 107.667 95.1926 107.606 95.29C107.547 95.3875 107.517 95.5183 107.517 95.6824V96.7056H107.209ZM111.706 96.744C111.524 96.744 111.361 96.7043 111.217 96.6248C111.076 96.5453 110.966 96.4312 110.887 96.2824C110.807 96.1311 110.767 95.9516 110.767 95.7439C110.767 95.5362 110.807 95.358 110.887 95.2092C110.966 95.0579 111.075 94.9425 111.214 94.8631C111.352 94.7836 111.51 94.7438 111.687 94.7438C111.866 94.7438 112.019 94.7823 112.144 94.8592C112.273 94.9361 112.37 95.0413 112.437 95.1746C112.503 95.3054 112.537 95.4529 112.537 95.617C112.537 95.6606 112.536 95.7003 112.533 95.7362C112.53 95.7721 112.527 95.8042 112.521 95.8324H110.967V95.5593H112.387L112.229 95.5901C112.229 95.4054 112.178 95.2631 112.075 95.1631C111.975 95.0631 111.843 95.0131 111.679 95.0131C111.553 95.0131 111.444 95.0426 111.352 95.1015C111.262 95.158 111.192 95.2413 111.141 95.3516C111.092 95.4593 111.067 95.5901 111.067 95.7439C111.067 95.8952 111.093 96.026 111.144 96.1363C111.196 96.2465 111.267 96.3312 111.36 96.3901C111.455 96.4466 111.567 96.4748 111.698 96.4748C111.839 96.4748 111.953 96.4478 112.041 96.394C112.13 96.3401 112.202 96.2671 112.256 96.1747L112.498 96.3171C112.45 96.4043 112.387 96.4799 112.31 96.544C112.235 96.6081 112.147 96.6581 112.044 96.694C111.944 96.7274 111.832 96.744 111.706 96.744ZM113.122 96.7056V94.7823H113.391L113.418 95.2131L113.368 95.1708C113.409 95.0682 113.464 94.9861 113.534 94.9246C113.603 94.8605 113.682 94.8143 113.772 94.7861C113.864 94.7579 113.959 94.7438 114.057 94.7438C114.195 94.7438 114.321 94.7707 114.434 94.8246C114.547 94.8759 114.636 94.9554 114.703 95.0631C114.772 95.1708 114.807 95.308 114.807 95.4747V96.7056H114.499V95.5824C114.499 95.3695 114.453 95.2221 114.361 95.14C114.271 95.0554 114.159 95.0131 114.026 95.0131C113.934 95.0131 113.841 95.0349 113.749 95.0785C113.657 95.1221 113.58 95.1926 113.518 95.29C113.459 95.3875 113.43 95.5183 113.43 95.6824V96.7056H113.122ZM115.931 94.2361V96.1747C115.931 96.2696 115.958 96.3401 116.012 96.3863C116.066 96.4325 116.135 96.4555 116.22 96.4555C116.294 96.4555 116.358 96.4427 116.412 96.4171C116.466 96.3914 116.515 96.3568 116.558 96.3132L116.666 96.5709C116.607 96.6248 116.536 96.6671 116.454 96.6979C116.375 96.7286 116.283 96.744 116.177 96.744C116.08 96.744 115.989 96.7274 115.904 96.694C115.82 96.6581 115.752 96.603 115.7 96.5286C115.652 96.4517 115.626 96.3517 115.624 96.2286V94.3207L115.931 94.2361ZM116.631 94.7823V95.0477H115.239V94.7823H116.631ZM117.089 96.7056V94.7823H117.339L117.381 95.0977C117.435 94.9797 117.513 94.8913 117.616 94.8323C117.721 94.7733 117.848 94.7438 117.997 94.7438C118.03 94.7438 118.066 94.7464 118.104 94.7515C118.145 94.7566 118.18 94.7669 118.208 94.7823L118.154 95.0631C118.126 95.0528 118.095 95.0451 118.062 95.04C118.029 95.0349 117.981 95.0323 117.92 95.0323C117.84 95.0323 117.759 95.0554 117.677 95.1015C117.598 95.1477 117.531 95.2182 117.477 95.3131C117.424 95.4054 117.397 95.5234 117.397 95.667V96.7056H117.089ZM120.24 94.7823L119.336 97.0287C119.287 97.1543 119.233 97.2531 119.174 97.3249C119.118 97.3992 119.054 97.4518 118.982 97.4826C118.913 97.5159 118.832 97.5326 118.74 97.5326C118.653 97.5326 118.572 97.5198 118.497 97.4941C118.426 97.471 118.362 97.439 118.305 97.398L118.39 97.1287C118.441 97.1748 118.495 97.2082 118.551 97.2287C118.61 97.2518 118.668 97.2633 118.724 97.2633C118.791 97.2633 118.854 97.2428 118.913 97.2018C118.972 97.1607 119.026 97.0774 119.074 96.9517L119.174 96.7017L118.982 96.244L118.371 94.7823H118.721L119.201 96.0363L119.321 96.3786L119.459 95.9978L119.909 94.7823H120.24Z" fill="black" fill-opacity="0.6"/>
<rect x="87.4854" y="104.382" width="26.0959" height="10.2576" rx="5.12878" fill="#6CA9E6"/>
<path d="M98.5264 109.267C98.5264 109.67 98.4168 109.979 98.1975 110.192C97.9794 110.405 97.665 110.511 97.2543 110.511H96.5781V108.07H97.326C97.7056 108.07 98.0005 108.176 98.2109 108.386C98.4213 108.596 98.5264 108.89 98.5264 109.267ZM98.2259 109.277C98.2259 108.959 98.1458 108.719 97.9855 108.558C97.8263 108.397 97.5893 108.316 97.2743 108.316H96.8619V110.266H97.2075C97.5459 110.266 97.8002 110.183 97.9705 110.017C98.1408 109.85 98.2259 109.604 98.2259 109.277ZM100.61 109.595C100.61 109.893 100.535 110.126 100.385 110.294C100.234 110.461 100.027 110.545 99.7619 110.545C99.5983 110.545 99.453 110.506 99.3261 110.429C99.1993 110.353 99.1013 110.242 99.0323 110.099C98.9633 109.955 98.9288 109.787 98.9288 109.595C98.9288 109.296 99.0034 109.064 99.1525 108.898C99.3017 108.732 99.5087 108.648 99.7736 108.648C100.03 108.648 100.233 108.733 100.383 108.903C100.534 109.074 100.61 109.304 100.61 109.595ZM99.2159 109.595C99.2159 109.828 99.2627 110.006 99.3562 110.129C99.4497 110.251 99.5871 110.313 99.7686 110.313C99.95 110.313 100.087 110.252 100.181 110.131C100.276 110.008 100.323 109.83 100.323 109.595C100.323 109.362 100.276 109.186 100.181 109.065C100.087 108.944 99.9489 108.883 99.7652 108.883C99.5838 108.883 99.4469 108.943 99.3545 109.062C99.2621 109.181 99.2159 109.359 99.2159 109.595ZM102.35 110.511V109.328C102.35 109.178 102.316 109.067 102.248 108.994C102.18 108.92 102.074 108.883 101.929 108.883C101.737 108.883 101.597 108.935 101.508 109.039C101.419 109.142 101.375 109.313 101.375 109.551V110.511H101.098V108.681H101.323L101.368 108.932H101.381C101.438 108.842 101.518 108.772 101.62 108.723C101.722 108.673 101.837 108.648 101.962 108.648C102.183 108.648 102.349 108.701 102.46 108.808C102.571 108.914 102.627 109.084 102.627 109.318V110.511H102.35ZM103.971 110.545C103.7 110.545 103.487 110.462 103.33 110.298C103.174 110.133 103.096 109.904 103.096 109.611C103.096 109.316 103.168 109.082 103.313 108.908C103.459 108.735 103.654 108.648 103.899 108.648C104.128 108.648 104.31 108.724 104.443 108.875C104.577 109.025 104.644 109.224 104.644 109.471V109.646H103.383C103.389 109.861 103.443 110.024 103.545 110.136C103.649 110.247 103.794 110.303 103.981 110.303C104.178 110.303 104.373 110.261 104.565 110.179V110.426C104.467 110.468 104.374 110.498 104.286 110.516C104.199 110.535 104.094 110.545 103.971 110.545ZM103.896 108.88C103.749 108.88 103.631 108.928 103.543 109.024C103.457 109.119 103.405 109.252 103.39 109.421H104.346C104.346 109.246 104.307 109.113 104.23 109.02C104.152 108.927 104.04 108.88 103.896 108.88Z" fill="white" fill-opacity="0.8"/>
</g>
</g>
</g>
<defs>
<filter id="filter0_d_691_153570" x="0" y="0" width="333.588" height="213.893" filterUnits="userSpaceOnUse" color-interpolation-filters="sRGB">
<feFlood flood-opacity="0" result="BackgroundImageFix"/>
<feColorMatrix in="SourceAlpha" type="matrix" values="0 0 0 0 0 0 0 0 0 0 0 0 0 0 0 0 0 0 127 0" result="hardAlpha"/>
<feOffset dy="15"/>
<feGaussianBlur stdDeviation="15"/>
<feComposite in2="hardAlpha" operator="out"/>
<feColorMatrix type="matrix" values="0 0 0 0 0 0 0 0 0 0 0 0 0 0 0 0 0 0 0.35 0"/>
<feBlend mode="normal" in2="BackgroundImageFix" result="effect1_dropShadow_691_153570"/>
<feBlend mode="normal" in="SourceGraphic" in2="effect1_dropShadow_691_153570" result="shape"/>
</filter>
<filter id="filter1_ddd_691_153570" x="263.779" y="25.5161" width="10.2744" height="10.2739" filterUnits="userSpaceOnUse" color-interpolation-filters="sRGB">
<feFlood flood-opacity="0" result="BackgroundImageFix"/>
<feColorMatrix in="SourceAlpha" type="matrix" values="0 0 0 0 0 0 0 0 0 0 0 0 0 0 0 0 0 0 127 0" result="hardAlpha"/>
<feOffset dy="1"/>
<feGaussianBlur stdDeviation="1.5"/>
<feComposite in2="hardAlpha" operator="out"/>
<feColorMatrix type="matrix" values="0 0 0 0 0 0 0 0 0 0 0 0 0 0 0 0 0 0 0.12 0"/>
<feBlend mode="normal" in2="BackgroundImageFix" result="effect1_dropShadow_691_153570"/>
<feColorMatrix in="SourceAlpha" type="matrix" values="0 0 0 0 0 0 0 0 0 0 0 0 0 0 0 0 0 0 127 0" result="hardAlpha"/>
<feOffset dy="1"/>
<feGaussianBlur stdDeviation="0.5"/>
<feComposite in2="hardAlpha" operator="out"/>
<feColorMatrix type="matrix" values="0 0 0 0 0 0 0 0 0 0 0 0 0 0 0 0 0 0 0.14 0"/>
<feBlend mode="normal" in2="effect1_dropShadow_691_153570" result="effect2_dropShadow_691_153570"/>
<feColorMatrix in="SourceAlpha" type="matrix" values="0 0 0 0 0 0 0 0 0 0 0 0 0 0 0 0 0 0 127 0" result="hardAlpha"/>
<feMorphology radius="1" operator="erode" in="SourceAlpha" result="effect3_dropShadow_691_153570"/>
<feOffset dy="2"/>
<feGaussianBlur stdDeviation="0.5"/>
<feComposite in2="hardAlpha" operator="out"/>
<feColorMatrix type="matrix" values="0 0 0 0 0 0 0 0 0 0 0 0 0 0 0 0 0 0 0.2 0"/>
<feBlend mode="normal" in2="effect2_dropShadow_691_153570" result="effect3_dropShadow_691_153570"/>
<feBlend mode="normal" in="SourceGraphic" in2="effect3_dropShadow_691_153570" result="shape"/>
</filter>
<filter id="filter2_ddd_691_153570" x="275.883" y="16.5718" width="22.8223" height="22.8218" filterUnits="userSpaceOnUse" color-interpolation-filters="sRGB">
<feFlood flood-opacity="0" result="BackgroundImageFix"/>
<feColorMatrix in="SourceAlpha" type="matrix" values="0 0 0 0 0 0 0 0 0 0 0 0 0 0 0 0 0 0 127 0" result="hardAlpha"/>
<feOffset dy="1"/>
<feGaussianBlur stdDeviation="2.5"/>
<feComposite in2="hardAlpha" operator="out"/>
<feColorMatrix type="matrix" values="0 0 0 0 0 0 0 0 0 0 0 0 0 0 0 0 0 0 0.12 0"/>
<feBlend mode="normal" in2="BackgroundImageFix" result="effect1_dropShadow_691_153570"/>
<feColorMatrix in="SourceAlpha" type="matrix" values="0 0 0 0 0 0 0 0 0 0 0 0 0 0 0 0 0 0 127 0" result="hardAlpha"/>
<feOffset dy="2"/>
<feGaussianBlur stdDeviation="1"/>
<feComposite in2="hardAlpha" operator="out"/>
<feColorMatrix type="matrix" values="0 0 0 0 0 0 0 0 0 0 0 0 0 0 0 0 0 0 0.14 0"/>
<feBlend mode="normal" in2="effect1_dropShadow_691_153570" result="effect2_dropShadow_691_153570"/>
<feColorMatrix in="SourceAlpha" type="matrix" values="0 0 0 0 0 0 0 0 0 0 0 0 0 0 0 0 0 0 127 0" result="hardAlpha"/>
<feMorphology radius="2" operator="erode" in="SourceAlpha" result="effect3_dropShadow_691_153570"/>
<feOffset dy="3"/>
<feGaussianBlur stdDeviation="0.5"/>
<feComposite in2="hardAlpha" operator="out"/>
<feColorMatrix type="matrix" values="0 0 0 0 0 0 0 0 0 0 0 0 0 0 0 0 0 0 0.2 0"/>
<feBlend mode="normal" in2="effect2_dropShadow_691_153570" result="effect3_dropShadow_691_153570"/>
<feBlend mode="normal" in="SourceGraphic" in2="effect3_dropShadow_691_153570" result="shape"/>
</filter>
<linearGradient id="paint0_linear_691_153570" x1="166.794" y1="15" x2="166.794" y2="168.893" gradientUnits="userSpaceOnUse">
<stop stop-color="#8FBCEA"/>
<stop offset="0.536458" stop-color="#DFDBEB"/>
<stop offset="0.651042" stop-color="#E5DAE0"/>
<stop offset="0.78125" stop-color="#E2C9CC"/>
<stop offset="0.880208" stop-color="#D6BDCC"/>
<stop offset="1" stop-color="#C9ACBF"/>
</linearGradient>
<linearGradient id="paint1_linear_691_153570" x1="287.294" y1="20.999" x2="287.294" y2="32.9662" gradientUnits="userSpaceOnUse">
<stop stop-color="#8FBCEA"/>
<stop offset="0.536458" stop-color="#DFDBEB"/>
<stop offset="0.651042" stop-color="#E5DAE0"/>
<stop offset="0.78125" stop-color="#E2C9CC"/>
<stop offset="0.880208" stop-color="#D6BDCC"/>
<stop offset="1" stop-color="#C9ACBF"/>
</linearGradient>
<clipPath id="clip0_691_153570">
<rect x="30" y="15" width="273.588" height="153.893" rx="12" fill="white"/>
</clipPath>
<clipPath id="clip1_691_153570">
<rect width="226.36" height="153.893" fill="white" transform="translate(77.2275 15)"/>
</clipPath>
<clipPath id="clip2_691_153570">
<rect x="281.311" y="20.999" width="11.9671" height="11.9671" rx="3.84658" fill="white"/>
</clipPath>
</defs>
</svg>
